<svg width="40" height="40" viewBox="0 0 40 40" fill="none" xmlns="http://www.w3.org/2000/svg">
<rect width="40" height="40" rx="20" fill="url(#paint0_linear_1426_40756)"/>
<path fill-rule="evenodd" clip-rule="evenodd" d="M20 31C26.0751 31 31 26.0751 31 20C31 13.9249 26.0751 9 20 9C13.9249 9 9 13.9249 9 20C9 26.0751 13.9249 31 20 31ZM23.4343 20.0657C23.7467 20.3781 24.2533 20.3781 24.5657 20.0657C24.8781 19.7533 24.8781 19.2467 24.5657 18.9343L20.5657 14.9343C20.2533 14.6219 19.7467 14.6219 19.4343 14.9343L15.4343 18.9343C15.1219 19.2467 15.1219 19.7533 15.4343 20.0657C15.7467 20.3781 16.2533 20.3781 16.5657 20.0657L19.2 17.4314V25C19.2 25.4418 19.5582 25.8 20 25.8C20.4418 25.8 20.8 25.4418 20.8 25V17.4314L23.4343 20.0657Z" fill="white"/>
<defs>
<linearGradient id="paint0_linear_1426_40756" x1="20" y1="0" x2="34.443" y2="33.8347" gradientUnits="userSpaceOnUse">
<stop stop-color="#00E7FF"/>
<stop offset="1" stop-color="#007AFF"/>
</linearGradient>
</defs>
</svg>
