<svg width="40" height="40" viewBox="0 0 40 40" fill="none" xmlns="http://www.w3.org/2000/svg">
<rect width="40" height="40" rx="20" fill="url(#paint0_linear_1426_40766)"/>
<path fill-rule="evenodd" clip-rule="evenodd" d="M31 20C31 26.0751 26.0751 31 20 31C13.9249 31 9 26.0751 9 20C9 13.9249 13.9249 9 20 9C26.0751 9 31 13.9249 31 20ZM23.3846 17.4615C23.3846 19.3308 21.8693 20.8462 20 20.8462C18.1307 20.8462 16.6154 19.3308 16.6154 17.4615C16.6154 15.5923 18.1307 14.0769 20 14.0769C21.8693 14.0769 23.3846 15.5923 23.3846 17.4615ZM26.405 25.858C26.2561 25.5006 26.0342 25.354 25.5905 25.0608C23.9871 24.0014 22.0657 23.3846 20.0001 23.3846C17.9345 23.3846 16.013 24.0014 14.4096 25.0609C13.9659 25.3541 13.744 25.5007 13.5951 25.8581C13.4918 26.1061 13.4918 26.5864 13.5951 26.8343C13.744 27.1917 13.9659 27.3383 14.4096 27.6315C16.013 28.6909 17.9345 29.3077 20 29.3077C22.0656 29.3077 23.9871 28.6909 25.5905 27.6314C26.0343 27.3382 26.2561 27.1916 26.405 26.8342C26.5083 26.5863 26.5083 26.1059 26.405 25.858Z" fill="white"/>
<defs>
<linearGradient id="paint0_linear_1426_40766" x1="20" y1="0" x2="34.443" y2="33.8347" gradientUnits="userSpaceOnUse">
<stop stop-color="#00E7FF"/>
<stop offset="1" stop-color="#007AFF"/>
</linearGradient>
</defs>
</svg>
