<svg width="22" height="16" viewBox="0 0 22 16" fill="none" xmlns="http://www.w3.org/2000/svg">
<path d="M3.426 4.05765C3.41793 4.04075 3.41183 4.02689 3.40724 4.01577C3.41914 4.01403 3.43417 4.01219 3.45282 4.01048C3.56152 4.0005 3.71396 4 3.96348 4H5V6.72245L3.67819 4.50181C3.55057 4.28741 3.47303 4.15616 3.426 4.05765Z" fill="white"/>
<path d="M6 6.72245V4H7.03652C7.28604 4 7.43848 4.0005 7.54718 4.01048C7.56583 4.01219 7.58086 4.01403 7.59276 4.01577C7.58817 4.02689 7.58207 4.04075 7.574 4.05765C7.52697 4.15616 7.44943 4.28741 7.32181 4.50181L6 6.72245Z" fill="white"/>
<path fill-rule="evenodd" clip-rule="evenodd" d="M0.32698 1.63803C0 2.27976 0 3.11984 0 4.8V16H0.03125L1.83141 14.1998L3.63156 16H3.69434L5.49449 14.1998L7.29465 16H7.35645L9.1566 14.1998L10.9568 16H11.0195L12.8197 14.1998L14.6198 16H14.6826L16.4828 14.1998L18.2829 16H18.3457L20.1459 14.1998L21.946 16H22V4.8C22 3.11984 22 2.27976 21.673 1.63803C21.3854 1.07354 20.9265 0.614601 20.362 0.32698C19.7202 0 18.8802 0 17.2 0H4.8C3.11984 0 2.27976 0 1.63803 0.32698C1.07354 0.614601 0.614601 1.07354 0.32698 1.63803ZM11 3.7C10.5582 3.7 10.2 4.05817 10.2 4.5C10.2 4.94183 10.5582 5.3 11 5.3H18C18.4418 5.3 18.8 4.94183 18.8 4.5C18.8 4.05817 18.4418 3.7 18 3.7H11ZM10.2 7.5C10.2 7.05817 10.5582 6.7 11 6.7H15C15.4418 6.7 15.8 7.05817 15.8 7.5C15.8 7.94183 15.4418 8.3 15 8.3H11C10.5582 8.3 10.2 7.94183 10.2 7.5ZM3.94204 3C3.72084 2.99998 3.52155 2.99997 3.36146 3.01466C3.19928 3.02954 2.99269 3.0647 2.81184 3.1972C2.57713 3.36917 2.42703 3.63319 2.39931 3.92284C2.37795 4.14602 2.45341 4.34152 2.52357 4.48849C2.59283 4.63357 2.69478 4.80481 2.80793 4.99488L5.07035 8.79574C5.16051 8.9472 5.32374 9.04 5.5 9.04C5.67626 9.04 5.83949 8.9472 5.92965 8.79574L8.19207 4.99487C8.30522 4.80481 8.40717 4.63356 8.47643 4.48849C8.54659 4.34152 8.62205 4.14602 8.60069 3.92284C8.57297 3.63319 8.42287 3.36917 8.18816 3.1972C8.00731 3.0647 7.80072 3.02954 7.63854 3.01466C7.47845 2.99997 7.27916 2.99998 7.05796 3H3.94204Z" fill="white"/>
</svg>
