<svg width="16" height="17" viewBox="0 0 16 17" fill="none" xmlns="http://www.w3.org/2000/svg">
<path fill-rule="evenodd" clip-rule="evenodd" d="M2.55319 0.500071L13.5319 0.5C13.9204 0.5 14.3085 0.557046 14.7141 0.746149C15.2003 0.972793 15.4581 1.33003 15.6388 1.59421C15.6528 1.61476 15.666 1.63595 15.6781 1.65762C15.8905 2.03568 16 2.44388 16 2.88298C16 3.30019 15.9007 3.75474 15.6781 4.15091C15.676 4.15476 15.6739 4.15846 15.6717 4.16224L8.7355 16.0771C8.58254 16.3399 8.30102 16.501 7.99698 16.5C7.69295 16.4989 7.41255 16.3357 7.26148 16.0719L0.45264 4.18244C0.450683 4.17922 0.448725 4.17601 0.446768 4.17272C0.290941 3.91595 0.0499661 3.51887 0.00781111 3.00644C-0.0309183 2.53518 0.0749929 2.06302 0.311774 1.65363C0.548555 1.24418 0.90502 0.916865 1.33377 0.716507C1.79349 0.501678 2.25936 0.500071 2.55319 0.500071ZM7.14892 2.20214H2.55319C2.25125 2.20214 2.13534 2.22073 2.05432 2.25862C1.94226 2.31091 1.84816 2.39697 1.78524 2.50575C1.72232 2.6146 1.69387 2.74071 1.70422 2.86697C1.71016 2.93932 1.73966 3.02209 1.91366 3.30907C1.9173 3.31508 1.92086 3.32116 1.92436 3.32725L7.14892 12.4503V2.20214ZM8.85106 2.20214V12.4953L14.1966 3.31278C14.257 3.20316 14.2979 3.04475 14.2979 2.88298C14.2979 2.75176 14.2707 2.63781 14.2098 2.52036C14.146 2.42857 14.1072 2.37998 14.0746 2.34671C14.0467 2.31826 14.0253 2.30301 13.9949 2.28889C13.8686 2.22996 13.7392 2.20214 13.5319 2.20214H8.85106Z" fill="#4689D4"/>
</svg>
