<svg width="23" height="26" viewBox="0 0 23 26" fill="none" xmlns="http://www.w3.org/2000/svg">
<path d="M8.06093 4.1123C7.8744 4.1123 7.55662 4.1123 7.24575 4.25744C6.9556 4.39567 6.72072 4.60993 6.55492 4.88638C6.39602 5.16975 6.32694 5.48767 6.35457 5.8056C6.38221 6.15117 6.54801 6.42763 6.65163 6.5935L11.0246 14.2306C11.1351 14.4241 11.3424 14.5416 11.5565 14.5416C11.7776 14.5416 11.9779 14.4241 12.0885 14.2306L16.5512 6.56586C16.6894 6.31704 16.7654 6.01294 16.7654 5.71575C16.7654 5.42547 16.6894 5.14902 16.5512 4.89329C16.5443 4.87947 16.5305 4.86565 16.5236 4.84491C16.3854 4.64448 16.2196 4.42332 15.9019 4.27818C15.6601 4.1676 15.4114 4.1123 15.1143 4.1123H8.06093ZM10.9417 11.5904L7.71551 5.95074C7.59807 5.77104 7.59116 5.72957 7.58425 5.70193C7.57735 5.63281 7.59116 5.57061 7.6257 5.51532C7.66025 5.46003 7.7086 5.41165 7.76387 5.384C7.80532 5.36327 7.8675 5.35636 8.05402 5.35636H10.9348V11.5904H10.9417ZM15.4114 5.42547C15.4321 5.44621 15.4528 5.47385 15.4874 5.52223C15.5219 5.58443 15.5357 5.64664 15.5357 5.72266C15.5357 5.81251 15.515 5.90236 15.4805 5.96456L12.1852 11.6319V5.35636H15.1212C15.2525 5.35636 15.3216 5.37709 15.3907 5.40474C15.3907 5.40474 15.3976 5.41165 15.4114 5.42547Z" fill="white"/>
<path d="M22.7895 5.31487L16.4408 0.131317C16.3371 0.0483799 16.2059 0 16.0746 0H11.5428C11.529 0 11.5151 0 11.5013 0.00691141C11.4875 0 11.4737 0 11.4599 0H6.92802C6.78986 0 6.66551 0.0483799 6.56188 0.131317L0.213141 5.31487C-0.0286505 5.51531 -0.0701003 5.86779 0.116424 6.1166L2.76231 9.57921L0.807256 11.0928C0.689814 11.1896 0.613823 11.3278 0.593098 11.4868C0.572373 11.6388 0.613823 11.7978 0.710539 11.9153L11.0385 25.1575C11.149 25.2958 11.3148 25.3787 11.4944 25.3787C11.674 25.3787 11.8398 25.2958 11.9504 25.1506L22.1609 11.9084C22.3474 11.6665 22.3128 11.314 22.078 11.1135L20.2542 9.54466L22.8724 6.1166C23.0728 5.86779 23.0313 5.50839 22.7895 5.31487ZM20.9104 11.6388L11.4944 23.8513L1.98858 11.6595L3.47387 10.5053L10.9763 20.3195C11.0937 20.4716 11.2664 20.5476 11.4392 20.5476C11.4599 20.5476 11.4806 20.5476 11.5013 20.5407C11.5221 20.5407 11.5428 20.5476 11.5635 20.5476C11.7362 20.5476 11.9089 20.4716 12.0264 20.3195L19.5564 10.4708L20.9104 11.6388ZM11.5013 19.0893L1.38065 5.85396L7.12836 1.16112H11.453C11.4668 1.16112 11.4806 1.16112 11.4944 1.15421C11.5082 1.15421 11.5221 1.16112 11.5359 1.16112H15.8605L21.6082 5.85396L11.5013 19.0893Z" fill="white"/>
</svg>
