<svg width="40" height="40" viewBox="0 0 40 40" fill="none" xmlns="http://www.w3.org/2000/svg">
<rect width="40" height="40" rx="20" fill="url(#paint0_linear_1426_40759)"/>
<path fill-rule="evenodd" clip-rule="evenodd" d="M20 31C26.0751 31 31 26.0751 31 20C31 13.9249 26.0751 9 20 9C13.9249 9 9 13.9249 9 20C9 26.0751 13.9249 31 20 31ZM16.5657 20.4343C16.2533 20.1219 15.7467 20.1219 15.4343 20.4343C15.1219 20.7467 15.1219 21.2533 15.4343 21.5657L19.4343 25.5657C19.7467 25.8781 20.2533 25.8781 20.5657 25.5657L24.5657 21.5657C24.8781 21.2533 24.8781 20.7467 24.5657 20.4343C24.2533 20.1219 23.7467 20.1219 23.4343 20.4343L20.8 23.0686V15.5C20.8 15.0582 20.4418 14.7 20 14.7C19.5582 14.7 19.2 15.0582 19.2 15.5V23.0686L16.5657 20.4343Z" fill="white"/>
<defs>
<linearGradient id="paint0_linear_1426_40759" x1="20" y1="0" x2="34.443" y2="33.8347" gradientUnits="userSpaceOnUse">
<stop stop-color="#00E7FF"/>
<stop offset="1" stop-color="#007AFF"/>
</linearGradient>
</defs>
</svg>
