<svg width="72" height="72" viewBox="0 0 72 72" fill="none" xmlns="http://www.w3.org/2000/svg">
<path d="M36 0C16.2287 0 0 16.2267 0 36C0 37.1659 0.943453 38.1094 2.10938 38.1094H6.32812C7.49405 38.1094 8.4375 37.1659 8.4375 36C8.4375 34.8341 7.49405 33.8906 6.32812 33.8906H4.32562C5.3723 18.1277 18.1277 5.3723 33.8906 4.32562V6.32812C33.8906 7.49405 34.8341 8.4375 36 8.4375C37.1659 8.4375 38.1094 7.49405 38.1094 6.32812V4.32562C53.8723 5.3723 66.6277 18.1277 67.6744 33.8906H65.6719C64.506 33.8906 63.5625 34.8341 63.5625 36C63.5625 37.1659 64.506 38.1094 65.6719 38.1094H67.6744C66.6277 53.8723 53.8723 66.6277 38.1094 67.6744V65.6719C38.1094 64.506 37.1659 63.5625 36 63.5625C34.8341 63.5625 33.8906 64.506 33.8906 65.6719V67.6551C24.7002 67.0279 16.0895 62.4015 10.5474 54.919C9.92531 54.0744 8.76769 53.8148 7.84477 54.3216C6.92198 54.8242 6.50995 55.9325 6.88078 56.9171L10.1313 66.6401C10.5022 67.7443 11.7051 68.3457 12.801 67.9749C13.9051 67.6041 14.5025 66.4093 14.1358 65.3053L13.7856 64.2547C20.0602 69.2025 27.8962 72 36 72C55.7713 72 72 55.7713 72 36C72 16.2267 55.7713 0 36 0Z" fill="url(#paint0_linear_1426_39027)"/>
<path d="M23.2624 43.2C22.2891 43.2 21.3558 43.06 20.4624 42.78C19.5691 42.4867 18.8358 42.0867 18.2624 41.58L19.1024 39.64C19.7291 40.12 20.3758 40.4733 21.0424 40.7C21.7224 40.9267 22.4358 41.04 23.1824 41.04C24.0891 41.04 24.7758 40.86 25.2424 40.5C25.7091 40.14 25.9424 39.6133 25.9424 38.92C25.9424 38.2533 25.7091 37.7533 25.2424 37.42C24.7891 37.0733 24.1224 36.9 23.2424 36.9H20.9624V34.84H23.0224C23.7824 34.84 24.3891 34.6533 24.8424 34.28C25.2958 33.9067 25.5224 33.3933 25.5224 32.74C25.5224 32.1267 25.3091 31.66 24.8824 31.34C24.4691 31.02 23.8691 30.86 23.0824 30.86C21.6691 30.86 20.4224 31.34 19.3424 32.3L18.5024 30.38C19.0758 29.8467 19.7824 29.4333 20.6224 29.14C21.4758 28.8467 22.3691 28.7 23.3024 28.7C24.7691 28.7 25.9158 29.0333 26.7424 29.7C27.5824 30.3533 28.0024 31.2667 28.0024 32.44C28.0024 33.28 27.7624 34.0067 27.2824 34.62C26.8158 35.22 26.1691 35.62 25.3424 35.82V35.58C26.3158 35.74 27.0691 36.14 27.6024 36.78C28.1491 37.4067 28.4224 38.1933 28.4224 39.14C28.4224 40.3933 27.9624 41.3867 27.0424 42.12C26.1224 42.84 24.8624 43.2 23.2624 43.2ZM36.9746 43.2C35.2013 43.2 33.8279 42.5867 32.8546 41.36C31.8946 40.1333 31.4146 38.4133 31.4146 36.2C31.4146 34.6 31.6613 33.2467 32.1546 32.14C32.6479 31.02 33.3479 30.1667 34.2546 29.58C35.1746 28.9933 36.2746 28.7 37.5546 28.7C38.3146 28.7 39.0679 28.84 39.8146 29.12C40.5613 29.3867 41.2013 29.7733 41.7346 30.28L40.8746 32.2C40.3813 31.7467 39.8479 31.4133 39.2746 31.2C38.7013 30.9733 38.1213 30.86 37.5346 30.86C36.3346 30.86 35.4213 31.2667 34.7946 32.08C34.1679 32.8933 33.8546 34.1067 33.8546 35.72V37.22H33.6146C33.7213 36.54 33.9479 35.96 34.2946 35.48C34.6413 34.9867 35.0879 34.6133 35.6346 34.36C36.1813 34.0933 36.7879 33.96 37.4546 33.96C38.2813 33.96 39.0146 34.1533 39.6546 34.54C40.2946 34.9267 40.7946 35.46 41.1546 36.14C41.5279 36.82 41.7146 37.6 41.7146 38.48C41.7146 39.3867 41.5079 40.2 41.0946 40.92C40.6946 41.6267 40.1413 42.1867 39.4346 42.6C38.7279 43 37.9079 43.2 36.9746 43.2ZM36.8346 41.16C37.3279 41.16 37.7613 41.0533 38.1346 40.84C38.5079 40.6267 38.7946 40.3267 38.9946 39.94C39.2079 39.54 39.3146 39.0867 39.3146 38.58C39.3146 38.06 39.2079 37.6067 38.9946 37.22C38.7946 36.8333 38.5079 36.5333 38.1346 36.32C37.7613 36.0933 37.3279 35.98 36.8346 35.98C36.3413 35.98 35.9079 36.0933 35.5346 36.32C35.1613 36.5333 34.8679 36.8333 34.6546 37.22C34.4413 37.6067 34.3346 38.06 34.3346 38.58C34.3346 39.0867 34.4413 39.54 34.6546 39.94C34.8679 40.3267 35.1613 40.6267 35.5346 40.84C35.9079 41.0533 36.3413 41.16 36.8346 41.16ZM44.8268 43V28.28H47.3268V34.92H47.0468C47.3535 34.2 47.8268 33.6533 48.4668 33.28C49.1068 32.8933 49.8401 32.7 50.6668 32.7C51.8668 32.7 52.7601 33.04 53.3468 33.72C53.9335 34.3867 54.2268 35.4067 54.2268 36.78V43H51.7268V36.9C51.7268 36.1133 51.5735 35.5467 51.2668 35.2C50.9735 34.84 50.5001 34.66 49.8468 34.66C49.0868 34.66 48.4735 34.9 48.0068 35.38C47.5535 35.8467 47.3268 36.4733 47.3268 37.26V43H44.8268Z" fill="url(#paint1_linear_1426_39027)"/>
<defs>
<linearGradient id="paint0_linear_1426_39027" x1="15.0303" y1="-5.94431" x2="58.7787" y2="68.2196" gradientUnits="userSpaceOnUse">
<stop offset="0.015" stop-color="#68DDEF"/>
<stop offset="0.165" stop-color="#73C5EF"/>
<stop offset="0.2505" stop-color="#7DB5F4"/>
<stop offset="0.3834" stop-color="#81A7F7"/>
<stop offset="0.5038" stop-color="#829DFF"/>
<stop offset="0.6646" stop-color="#B49DFF"/>
<stop offset="0.7977" stop-color="#D09EF7"/>
<stop offset="1" stop-color="#EBA7CC"/>
</linearGradient>
<linearGradient id="paint1_linear_1426_39027" x1="25.1414" y1="20.936" x2="36.6252" y2="51.3056" gradientUnits="userSpaceOnUse">
<stop offset="0.015" stop-color="#68DDEF"/>
<stop offset="0.165" stop-color="#73C5EF"/>
<stop offset="0.2505" stop-color="#7DB5F4"/>
<stop offset="0.3834" stop-color="#81A7F7"/>
<stop offset="0.5038" stop-color="#829DFF"/>
<stop offset="0.6646" stop-color="#B49DFF"/>
<stop offset="0.7977" stop-color="#D09EF7"/>
<stop offset="1" stop-color="#EBA7CC"/>
</linearGradient>
</defs>
</svg>
