<svg width="86" height="89" viewBox="0 0 86 89" fill="none" xmlns="http://www.w3.org/2000/svg">
<path d="M60.9173 13.3712C60.9173 13.3712 62.9465 15.5956 66.005 14.7274C68.9813 13.8825 71.0873 10.4932 70.394 7.4988C70.1198 6.32555 68.3626 4.10263 67.8429 4.24891C67.3233 4.39518 60.9173 13.3712 60.9173 13.3712Z" fill="#FFD200"/>
<path d="M60.9173 13.3712C60.9173 13.3712 62.9465 15.5956 66.005 14.7274C68.9813 13.8825 71.0873 10.4932 70.394 7.4988C70.1198 6.32555 68.3626 4.10263 67.8429 4.24891C67.3233 4.39518 60.9173 13.3712 60.9173 13.3712Z" stroke="#E3A200"/>
<path d="M61.0703 13.5741C62.758 15.0589 66.4596 15.9615 69.205 12.057C71.5957 8.65565 69.6513 5.43216 67.9745 4.20667C66.4966 3.12097 63.1519 3.59086 61.037 5.85191C58.1151 8.96889 59.8574 12.5116 61.0703 13.5741Z" fill="#FFFF00"/>
<path d="M61.0703 13.5741C62.758 15.0589 66.4596 15.9615 69.205 12.057C71.5957 8.65565 69.6513 5.43216 67.9745 4.20667C66.4966 3.12097 63.1519 3.59086 61.037 5.85191C58.1151 8.96889 59.8574 12.5116 61.0703 13.5741Z" stroke="#E3A200"/>
<path d="M61.2127 8.64332L65.9113 12.755L67.5209 5.9094L61.2127 8.64332Z" fill="#FFFF00"/>
<path d="M61.2127 8.64332L65.9113 12.755L67.5209 5.9094L61.2127 8.64332Z" stroke="#E3A200" stroke-linecap="round" stroke-linejoin="round"/>
<path d="M63.6289 10.3552L67.3835 5.9928L63.6289 10.3552Z" fill="#FFD200"/>
<path d="M63.6289 10.3552L67.3835 5.9928" stroke="#E3A200" stroke-linecap="round" stroke-linejoin="round"/>
<path d="M61.8074 13.0044C61.8074 13.0044 61.0122 12.319 60.7817 11.445L61.8074 13.0044Z" fill="#A3E0FF"/>
<path d="M61.8074 13.0044C61.8074 13.0044 61.0122 12.319 60.7817 11.445" stroke="white" stroke-linecap="round" stroke-linejoin="round"/>
<path d="M60.5117 10.0828C60.5117 10.0828 60.4247 9.53815 60.497 9.2016L60.5117 10.0828Z" fill="#A3E0FF"/>
<path d="M60.5117 10.0828C60.5117 10.0828 60.4247 9.53815 60.497 9.2016" stroke="white" stroke-linecap="round" stroke-linejoin="round"/>
<path d="M66.5562 48.1544L62.8305 51.6675L63.7194 57.4432L76.8942 67.3384L81.9497 51.0023L79.1213 45.7234L73.0694 45.815L66.5562 48.1544Z" fill="#22B5FF"/>
<path d="M66.5562 48.1544L62.8305 51.6675L63.7194 57.4432L76.8942 67.3384L81.9497 51.0023L79.1213 45.7234L73.0694 45.815L66.5562 48.1544Z" stroke="#0088ED" stroke-linecap="round" stroke-linejoin="round"/>
<path d="M79.0547 45.8388L75.047 50.5273L78.0031 55.9497L77.0169 67.249" fill="#22B5FF"/>
<path d="M79.0547 45.8388L75.047 50.5273L78.0031 55.9497L77.0169 67.249" stroke="#0088ED" stroke-linecap="round" stroke-linejoin="round"/>
<path d="M81.7433 50.9572L79.2094 54.3543L81.7433 50.9572Z" fill="#22B5FF"/>
<path d="M81.7433 50.9572L79.2094 54.3543" stroke="#0088ED" stroke-linecap="round" stroke-linejoin="round"/>
<path d="M63.9902 51.9612L68.0625 52.7914L72.0109 51.3203" fill="#22B5FF"/>
<path d="M63.9902 51.9612L68.0625 52.7914L72.0109 51.3203" stroke="#0088ED" stroke-linecap="round" stroke-linejoin="round"/>
<path d="M68.0758 52.8685L69.0665 58.0676L72.854 61.5985" fill="#22B5FF"/>
<path d="M68.0758 52.8685L69.0665 58.0676L72.854 61.5985" stroke="#0088ED" stroke-linecap="round" stroke-linejoin="round"/>
<path d="M73.6328 57.5572L77.8421 56.0892L73.6328 57.5572Z" fill="#22B5FF"/>
<path d="M73.6328 57.5572L77.8421 56.0892" stroke="#0088ED" stroke-linecap="round" stroke-linejoin="round"/>
<path d="M78.9615 47.3404L76.0722 50.5097L78.131 54.1449L80.9096 50.7767L78.9615 47.3404Z" fill="#4FC4FF"/>
<path d="M73.1507 46.6275L66.9651 48.8398L64.9504 51.1299L67.8978 51.8839L74.2708 49.7489L77.2214 46.6453L73.1507 46.6275Z" fill="#4FC4FF"/>
<path d="M63.8343 52.8871L64.4939 56.9992L67.9708 58.2667L67.1247 53.5364L63.8343 52.8871Z" fill="#A3E0FF"/>
<path d="M64.7617 53.7783L66.3781 54.1017L64.7617 53.7783Z" fill="#22B5FF"/>
<path d="M64.7617 53.7783L66.3781 54.1017" stroke="white" stroke-linecap="round" stroke-linejoin="round"/>
<path d="M70.1125 53.6236L74.2507 52.2988L70.1125 53.6236Z" fill="#22B5FF"/>
<path d="M70.1125 53.6236L74.2507 52.2988" stroke="white" stroke-linecap="round" stroke-linejoin="round"/>
<path d="M36.697 70.0048L33.1644 68.8514L29.7933 71.4242L27.8353 83.8377L40.2302 80.8018L42.611 77.1659L40.4502 73.3418L36.697 70.0048Z" fill="#22B5FF"/>
<path d="M36.697 70.0048L33.1644 68.8514L29.7933 71.4242L27.8353 83.8377L40.2302 80.8018L42.611 77.1659L40.4502 73.3418L36.697 70.0048Z" stroke="#0088ED" stroke-linecap="round" stroke-linejoin="round"/>
<path d="M42.5108 77.1622L38.4352 76.1365L35.7034 80.0047L27.8295 83.9353" fill="#22B5FF"/>
<path d="M42.5108 77.1622L38.4352 76.1365L35.7034 80.0047L27.8295 83.9353" stroke="#0088ED" stroke-linecap="round" stroke-linejoin="round"/>
<path d="M40.1837 80.6537L37.2169 80.1079L40.1837 80.6537Z" fill="#22B5FF"/>
<path d="M40.1837 80.6537L37.2169 80.1079" stroke="#0088ED" stroke-linecap="round" stroke-linejoin="round"/>
<path d="M33.3789 69.6904L34.5058 72.4228L36.736 74.4111" fill="#22B5FF"/>
<path d="M33.3789 69.6904L34.5058 72.4228L36.736 74.4111" stroke="#0088ED" stroke-linecap="round" stroke-linejoin="round"/>
<path d="M34.505 72.4239L31.3801 74.9565L30.3176 78.6882" fill="#22B5FF"/>
<path d="M34.505 72.4239L31.3801 74.9565L30.3176 78.6882" stroke="#0088ED" stroke-linecap="round" stroke-linejoin="round"/>
<path d="M33.3813 77.9152L35.5609 79.9506L33.3813 77.9152Z" fill="#22B5FF"/>
<path d="M33.3813 77.9152L35.5609 79.9506" stroke="#0088ED" stroke-linecap="round" stroke-linejoin="round"/>
<path d="M41.6157 77.5707L38.7808 76.7603L37.0012 79.3162L40.0099 80.0593L41.6157 77.5707Z" fill="#4FC4FF"/>
<path d="M39.9954 73.6462L36.4125 70.4595L34.2987 70.0174L35.0116 72.0008L38.5133 75.4049L41.3719 76.2406L39.9954 73.6462Z" fill="#4FC4FF"/>
<path d="M32.7355 69.9125L30.3447 71.7613L30.9136 74.3515L33.6623 72.0748L32.7355 69.9125Z" fill="#A3E0FF"/>
<path d="M32.584 70.7151L33.0077 71.8805L32.584 70.7151Z" fill="#22B5FF"/>
<path d="M32.584 70.7151L33.0077 71.8805" stroke="white" stroke-linecap="round" stroke-linejoin="round"/>
<path d="M34.6684 73.9707L36.917 76.1309L34.6684 73.9707Z" fill="#22B5FF"/>
<path d="M34.6684 73.9707L36.917 76.1309" stroke="white" stroke-linecap="round" stroke-linejoin="round"/>
<path d="M36.6594 22.7043C36.6594 22.7043 42.4714 19.3342 48.0371 23.1997C53.453 26.9614 55.5284 35.7709 52.0234 41.3053C50.5271 43.6534 45.3 46.5203 44.3535 45.866C43.4069 45.2118 36.6594 22.7043 36.6594 22.7043Z" fill="#FFD200"/>
<path d="M36.6594 22.7043C36.6594 22.7043 42.4714 19.3342 48.0371 23.1997C53.453 26.9614 55.5284 35.7709 52.0234 41.3053C50.5271 43.6534 45.3 46.5203 44.3535 45.866C43.4069 45.2118 36.6594 22.7043 36.6594 22.7043Z" stroke="#E3A200"/>
<path d="M33.5726 14.1473C40.7112 11.2519 53.9776 12.4063 58.9394 29.4164C63.1173 43.7546 53.7407 52.7571 46.654 55.0959C40.1987 57.2515 29.3662 51.4599 24.6354 40.6282C18.2668 26.1043 28.0187 16.379 33.5726 14.1473Z" fill="#FFFF00"/>
<path d="M33.5726 14.1473C40.7112 11.2519 53.9776 12.4063 58.9394 29.4164C63.1173 43.7546 53.7407 52.7571 46.654 55.0959C40.1987 57.2515 29.3662 51.4599 24.6354 40.6282C18.2668 26.1043 28.0187 16.379 33.5726 14.1473Z" stroke="#E3A200" stroke-width="3"/>
<path d="M28.4662 31.5938L48.5308 23.0347L46.5244 48.9505L28.4662 31.5938Z" fill="#FFFF00"/>
<path d="M28.4662 31.5938L48.5308 23.0347L46.5244 48.9505L28.4662 31.5938Z" stroke="#E3A200" stroke-width="3" stroke-linecap="round" stroke-linejoin="round"/>
<path d="M38.25 28.4004L46.0381 48.0827L38.25 28.4004Z" fill="#FFD200"/>
<path d="M38.25 28.4004L46.0381 48.0827" stroke="#E3A200" stroke-width="3" stroke-linecap="round" stroke-linejoin="round"/>
<path d="M34.7704 17.2072C34.7704 17.2072 31.4298 18.5136 29.6485 21.4318L34.7704 17.2072Z" fill="#A3E0FF"/>
<path d="M34.7704 17.2072C34.7704 17.2072 31.4298 18.5136 29.6485 21.4318" stroke="white" stroke-width="3" stroke-linecap="round" stroke-linejoin="round"/>
<path d="M27.3438 25.9307C27.3438 25.9307 26.5809 27.4639 26.504 28.9266L27.3438 25.9307Z" fill="#A3E0FF"/>
<path d="M27.3438 25.9307C27.3438 25.9307 26.5809 27.4639 26.504 28.9266" stroke="white" stroke-width="3" stroke-linecap="round" stroke-linejoin="round"/>
<path d="M5.69398 52.5602C5.69398 52.5602 1.98712 55.1197 2.63471 59.8872C3.265 64.5264 7.82638 68.3372 12.4613 67.9457C14.2406 67.7921 17.9955 65.6884 17.8874 64.8786C17.7792 64.0688 5.69398 52.5602 5.69398 52.5602Z" fill="#FFD200"/>
<path d="M5.69398 52.5602C5.69398 52.5602 1.98712 55.1197 2.63471 59.8872C3.265 64.5264 7.82638 68.3372 12.4613 67.9457C14.2406 67.7921 17.9955 65.6884 17.8874 64.8786C17.7792 64.0688 5.69398 52.5602 5.69398 52.5602Z" stroke="#E3A200"/>
<path d="M5.33985 52.756C2.70364 55.0054 0.536278 60.4366 5.80132 65.3815C10.4242 69.7218 15.726 67.3783 17.9277 65.1007C19.8608 63.109 19.8967 57.9722 16.9903 54.3391C12.9561 49.2867 7.19342 51.1688 5.33985 52.756Z" fill="#FFFF00"/>
<path d="M5.33985 52.756C2.70364 55.0054 0.536278 60.4366 5.80132 65.3815C10.4242 69.7218 15.726 67.3783 17.9277 65.1007C19.8608 63.109 19.8967 57.9722 16.9903 54.3391C12.9561 49.2867 7.19342 51.1688 5.33985 52.756Z" stroke="#E3A200"/>
<path d="M12.7164 53.9911L5.47125 60.265L15.4152 64.089L12.7164 53.9911Z" fill="#FFFF00"/>
<path d="M12.7164 53.9911L5.47125 60.265L15.4152 64.089L12.7164 53.9911Z" stroke="#E3A200" stroke-linecap="round" stroke-linejoin="round"/>
<path d="M9.60547 57.3223L15.3471 63.8981L9.60547 57.3223Z" fill="#FFD200"/>
<path d="M9.60547 57.3223L15.3471 63.8981" stroke="#E3A200" stroke-linecap="round" stroke-linejoin="round"/>
<path d="M5.98887 54.0354C5.98887 54.0354 7.21083 52.972 8.56192 52.8008L5.98887 54.0354Z" fill="#A3E0FF"/>
<path d="M5.98887 54.0354C5.98887 54.0354 7.21083 52.972 8.56192 52.8008" stroke="white" stroke-linecap="round" stroke-linejoin="round"/>
<path d="M10.6699 52.6589C10.6699 52.6589 11.5373 52.64 12.0124 52.8047L10.6699 52.6589Z" fill="#A3E0FF"/>
<path d="M10.6699 52.6589C10.6699 52.6589 11.5373 52.64 12.0124 52.8047" stroke="white" stroke-linecap="round" stroke-linejoin="round"/>
<path d="M12.433 12.5987L14.4425 16.2174L19.144 16.6722L29.5211 8.32387L17.7318 1.10793L13.0329 2.27143L11.8985 7.03045L12.433 12.5987Z" fill="#22B5FF"/>
<path d="M12.433 12.5987L14.4425 16.2174L19.144 16.6722L29.5211 8.32386L17.7318 1.10793L13.0329 2.27143L11.8985 7.03045L12.433 12.5987Z" stroke="#0088ED" stroke-linecap="round" stroke-linejoin="round"/>
<path d="M13.1077 2.3484L15.9817 6.42224L20.8185 5.18728L29.4732 8.21168" fill="#22B5FF"/>
<path d="M13.1077 2.3484L15.9817 6.42224L20.8185 5.18728L29.4732 8.21168" stroke="#0088ED" stroke-linecap="round" stroke-linejoin="round"/>
<path d="M17.652 1.26282L19.808 3.92476L17.652 1.26282Z" fill="#22B5FF"/>
<path d="M17.652 1.26282L19.808 3.92476" stroke="#0088ED" stroke-linecap="round" stroke-linejoin="round"/>
<path d="M14.9023 15.3689L16.3643 12.3444L15.9988 8.9582" fill="#22B5FF"/>
<path d="M14.9023 15.3689L16.3643 12.3444L15.9988 8.9582" stroke="#0088ED" stroke-linecap="round" stroke-linejoin="round"/>
<path d="M16.4273 12.3483L20.6974 12.6084L24.2182 10.3452" fill="#22B5FF"/>
<path d="M16.4273 12.3483L20.6974 12.6084L24.2182 10.3452" stroke="#0088ED" stroke-linecap="round" stroke-linejoin="round"/>
<path d="M21.2095 8.93164L20.8985 5.34169L21.2095 8.93164Z" fill="#22B5FF"/>
<path d="M21.2095 8.93164L20.8985 5.34169" stroke="#0088ED" stroke-linecap="round" stroke-linejoin="round"/>
<path d="M14.2649 2.72113L16.1717 5.61608L19.4297 4.72781L17.3449 1.87991L14.2649 2.72113Z" fill="#4FC4FF"/>
<path d="M12.5507 7.12813L13.0509 12.4145L14.4434 14.4491L15.6215 12.2906L15.2191 6.87278L13.3759 3.9429L12.5507 7.12813Z" fill="#4FC4FF"/>
<path d="M15.5952 15.6764L18.9479 15.9792L20.6337 13.5082L16.7596 13.2282L15.5952 15.6764Z" fill="#A3E0FF"/>
<path d="M16.4805 15.1252L17.0559 13.9235L16.4805 15.1252Z" fill="#22B5FF"/>
<path d="M16.4805 15.1252L17.0559 13.9235" stroke="white" stroke-linecap="round" stroke-linejoin="round"/>
<path d="M17.4262 10.9037L17.2131 7.39806L17.4262 10.9037Z" fill="#22B5FF"/>
<path d="M17.4262 10.9037L17.2131 7.39806" stroke="white" stroke-linecap="round" stroke-linejoin="round"/>
</svg>
