<svg width="72" height="72" viewBox="0 0 72 72" fill="none" xmlns="http://www.w3.org/2000/svg">
<path d="M53.8345 18.1573C53.8143 18.1011 53.8188 18.0426 53.794 17.9863C51.9756 14.0306 49.2277 10.5732 45.7844 7.909C42.3411 5.24478 38.3046 3.45272 34.0191 2.68561C29.7335 1.9185 25.326 2.1991 21.1724 3.50348C17.0187 4.80786 13.2421 7.09733 10.1644 10.1767C7.08681 13.2561 4.79947 17.034 3.49744 21.1884C2.19541 25.3428 1.91731 29.7505 2.68684 34.0356C3.45637 38.3207 5.25071 42.3561 7.91688 45.7979C10.5831 49.2397 14.042 51.9857 17.9988 53.8018C18.0505 53.8243 18.1023 53.8176 18.154 53.8356C19.9463 57.82 22.6793 61.3097 26.1181 64.0047C29.5569 66.6997 33.5987 68.5194 37.896 69.3074C42.1934 70.0955 46.6178 69.8283 50.7891 68.5288C54.9604 67.2293 58.7538 64.9364 61.8433 61.8471C64.9327 58.7578 67.2259 54.9646 68.5256 50.7934C69.8254 46.6222 70.0929 42.1978 69.3051 37.9003C68.5174 33.6029 66.6979 29.5611 64.0031 26.1221C61.3084 22.6831 57.8188 19.9499 53.8345 18.1573ZM6.74875 29.2498C6.74074 24.4837 8.24912 19.8387 11.0557 15.9865C13.8623 12.1344 17.8215 9.27498 22.3607 7.82188C26.8999 6.36877 31.7837 6.39735 36.3055 7.90346C40.8274 9.40958 44.7529 12.3151 47.5143 16.1998C43.2286 15.4084 38.8147 15.6708 34.653 16.9645C30.4914 18.2582 26.7066 20.5444 23.6249 23.626C20.5433 26.7077 18.2571 30.4924 16.9634 34.6541C15.6697 38.8158 15.4073 43.2297 16.1988 47.5153C13.2878 45.4385 10.9127 42.699 9.26951 39.523C7.62635 36.347 6.76232 32.8257 6.74875 29.2498ZM42.7487 65.2498C38.2987 65.2498 33.9485 63.9302 30.2484 61.4579C26.5483 58.9856 23.6644 55.4715 21.9615 51.3602C20.2585 47.2489 19.8129 42.7249 20.6811 38.3603C21.5492 33.9957 23.6922 29.9866 26.8388 26.8399C29.9855 23.6933 33.9946 21.5503 38.3592 20.6822C42.7238 19.814 47.2478 20.2596 51.3591 21.9625C55.4705 23.6655 58.9845 26.5494 61.4568 30.2495C63.9291 33.9496 65.2487 38.2998 65.2487 42.7498C65.2422 48.7152 62.8696 54.4344 58.6514 58.6525C54.4333 62.8707 48.7141 65.2433 42.7487 65.2498Z" fill="url(#paint0_linear_1426_38920)"/>
<path d="M41.1949 41.8571H43.8051C45.1464 41.8731 46.4296 42.4196 47.3863 43.3823C48.3429 44.3449 48.8987 45.6491 48.9374 47.0218C48.9761 48.3945 48.4947 49.7293 47.5939 50.7469C46.6931 51.7644 45.4428 52.3858 44.1047 52.481V53.3571C44.1047 53.7929 43.9356 54.2107 43.6347 54.5188C43.3337 54.8269 42.9256 55 42.5 55C42.0744 55 41.6663 54.8269 41.3653 54.5188C41.0644 54.2107 40.8953 53.7929 40.8953 53.3571V52.4941H37.6047C37.1791 52.4941 36.7709 52.321 36.47 52.0129C36.1691 51.7048 36 51.287 36 50.8512C36 50.4155 36.1691 49.9977 36.47 49.6896C36.7709 49.3815 37.1791 49.2084 37.6047 49.2084H43.8094C44.336 49.2084 44.841 48.9942 45.2134 48.613C45.5857 48.2318 45.7949 47.7147 45.7949 47.1756C45.7949 46.6365 45.5857 46.1195 45.2134 45.7382C44.841 45.357 44.336 45.1429 43.8094 45.1429H41.1949C39.8536 45.1269 38.5704 44.5804 37.6137 43.6177C36.6571 42.6551 36.1013 41.3509 36.0626 39.9782C36.0239 38.6055 36.5053 37.2707 37.4061 36.2531C38.3069 35.2356 39.5572 34.6142 40.8953 34.519V33.6429C40.8953 33.2071 41.0644 32.7893 41.3653 32.4812C41.6663 32.1731 42.0744 32 42.5 32C42.9256 32 43.3337 32.1731 43.6347 32.4812C43.9356 32.7893 44.1047 33.2071 44.1047 33.6429V34.5059H47.3953C47.8209 34.5059 48.2291 34.679 48.53 34.9871C48.8309 35.2952 49 35.7131 49 36.1488C49 36.5845 48.8309 37.0023 48.53 37.3104C48.2291 37.6185 47.8209 37.7916 47.3953 37.7916H41.1906C40.664 37.7916 40.159 38.0058 39.7866 38.387C39.4143 38.7682 39.2051 39.2853 39.2051 39.8244C39.2051 40.3635 39.4143 40.8805 39.7866 41.2618C40.159 41.643 40.664 41.8571 41.1906 41.8571H41.1949Z" fill="url(#paint1_linear_1426_38920)"/>
<defs>
<linearGradient id="paint0_linear_1426_38920" x1="16.3497" y1="-3.30852" x2="57.3561" y2="66.206" gradientUnits="userSpaceOnUse">
<stop offset="0.015" stop-color="#68DDEF"/>
<stop offset="0.165" stop-color="#73C5EF"/>
<stop offset="0.2505" stop-color="#7DB5F4"/>
<stop offset="0.3834" stop-color="#81A7F7"/>
<stop offset="0.5038" stop-color="#829DFF"/>
<stop offset="0.6646" stop-color="#B49DFF"/>
<stop offset="0.7977" stop-color="#D09EF7"/>
<stop offset="1" stop-color="#EBA7CC"/>
</linearGradient>
<linearGradient id="paint1_linear_1426_38920" x1="38.7138" y1="30.1011" x2="54.6668" y2="45.3869" gradientUnits="userSpaceOnUse">
<stop offset="0.015" stop-color="#68DDEF"/>
<stop offset="0.165" stop-color="#73C5EF"/>
<stop offset="0.2505" stop-color="#7DB5F4"/>
<stop offset="0.3834" stop-color="#81A7F7"/>
<stop offset="0.5038" stop-color="#829DFF"/>
<stop offset="0.6646" stop-color="#B49DFF"/>
<stop offset="0.7977" stop-color="#D09EF7"/>
<stop offset="1" stop-color="#EBA7CC"/>
</linearGradient>
</defs>
</svg>
