<svg width="72" height="68" viewBox="0 0 72 68" fill="none" xmlns="http://www.w3.org/2000/svg">
<path d="M22.9336 24.2864C22.9336 26.0939 24.3989 27.5591 26.2063 27.5591C28.0138 27.5591 29.479 26.0939 29.479 24.2864C29.479 22.4789 28.0138 21.0137 26.2063 21.0137C24.3989 21.0137 22.9336 22.4789 22.9336 24.2864Z" fill="url(#paint0_linear_1426_39248)"/>
<path d="M42.5703 43.9226C42.5703 45.7302 44.0355 47.1954 45.843 47.1954C47.6506 47.1954 49.1158 45.7302 49.1158 43.9226C49.1158 42.1154 47.6506 40.6499 45.843 40.6499C44.0355 40.6499 42.5703 42.1154 42.5703 43.9226Z" fill="url(#paint1_linear_1426_39248)"/>
<path d="M46.4554 27.1452C47.4139 26.1867 47.4139 24.6325 46.4554 23.674C45.4968 22.7154 43.9429 22.7154 42.9843 23.674L24.4709 42.1872C23.5123 43.1458 23.5123 44.7 24.4709 45.6586C25.4294 46.6171 26.9836 46.6171 27.9421 45.6586L46.4554 27.1452Z" fill="url(#paint2_linear_1426_39248)"/>
<path fill-rule="evenodd" clip-rule="evenodd" d="M46.0613 0.708392C43.4281 0.473109 40.2106 0.473125 36.14 0.473145H35.9093C31.8387 0.473125 28.6211 0.473109 25.988 0.708392C23.2832 0.950073 21.0209 1.45093 18.8828 2.54778C18.329 2.83191 17.7895 3.14335 17.2666 3.48093C15.2476 4.78416 13.6827 6.49295 12.121 8.71451C10.6007 10.8772 8.99189 13.6638 6.95658 17.189L6.84132 17.3887C4.80594 20.914 3.19716 23.7005 2.08434 26.0985C0.941259 28.5617 0.243874 30.7714 0.124713 33.1713C0.0938457 33.7931 0.0938457 34.4159 0.124713 35.0377C0.243874 37.438 0.941263 39.6474 2.08434 42.1108C3.19715 44.5087 4.80594 47.2951 6.84125 50.8205L6.95658 51.0201C8.99186 54.5455 10.6007 57.3319 12.121 59.4948C13.6827 61.7164 15.2476 63.4251 17.2666 64.7282C17.7895 65.066 18.329 65.3772 18.8828 65.6613C21.0209 66.7583 23.2832 67.259 25.988 67.5009C28.6211 67.7362 31.8386 67.7362 35.9093 67.7362H36.14C40.2103 67.7362 43.4281 67.7362 46.0613 67.5009C48.7662 67.259 51.0283 66.7583 53.1664 65.6613C53.7205 65.3772 54.2598 65.066 54.7828 64.7282C56.8017 63.4251 58.3667 61.7164 59.9282 59.4948C61.4487 57.3319 63.0572 54.5455 65.0925 51.0201L65.2081 50.8205C67.2434 47.2954 68.8522 44.5087 69.965 42.1108C71.1081 39.6474 71.8055 37.438 71.9247 35.0377C71.9554 34.4159 71.9554 33.7931 71.9247 33.1713C71.8055 30.7714 71.1081 28.5617 69.965 26.0985C68.8522 23.7005 67.2434 20.9139 65.2081 17.3886L65.0929 17.1891C63.0575 13.6638 61.4487 10.8772 59.9282 8.71451C58.3667 6.49295 56.8017 4.78416 54.7828 3.48093C54.2598 3.14335 53.7205 2.83191 53.1664 2.54778C51.0283 1.45093 48.7662 0.950073 46.0613 0.708392ZM21.1235 6.91566C22.502 6.20848 24.0822 5.80731 26.4249 5.59799C28.8144 5.38448 31.8133 5.38225 36.0245 5.38225C40.2358 5.38225 43.235 5.38448 45.6244 5.59799C47.967 5.80731 49.5474 6.20848 50.9259 6.91566C51.3353 7.12567 51.7339 7.35587 52.1204 7.60538C53.422 8.44562 54.5596 9.61353 55.9122 11.5377C57.292 13.5003 58.7932 16.0963 60.8989 19.7434C63.0045 23.3905 64.5021 25.9888 65.5121 28.1649C66.5021 30.2984 66.9446 31.8675 67.0215 33.4148C67.0444 33.8743 67.0444 34.3348 67.0215 34.7943C66.9446 36.3416 66.5021 37.9109 65.5121 40.0444C64.5021 42.2204 63.0045 44.8186 60.8989 48.4657C58.7932 52.1129 57.292 54.7088 55.9122 56.6715C54.5596 58.5958 53.422 59.7635 52.1204 60.604C51.7339 60.8533 51.3353 61.0834 50.9259 61.2935C49.5474 62.0008 47.967 62.402 45.6244 62.6111C43.235 62.8248 40.2358 62.8271 36.0245 62.8271C31.8133 62.8271 28.8144 62.8248 26.4249 62.6111C24.0822 62.402 22.502 62.0008 21.1235 61.2935C20.7141 61.0834 20.3154 60.8533 19.9289 60.604C18.6272 59.7635 17.4897 58.5958 16.1371 56.6715C14.7574 54.7088 13.256 52.1129 11.1504 48.4657C9.04468 44.8186 7.54715 42.2204 6.53732 40.0444C5.54728 37.9109 5.10458 36.3416 5.02777 34.7943C5.00496 34.3348 5.00496 33.8743 5.02777 33.4148C5.10458 31.8675 5.54728 30.2984 6.53732 28.1649C7.54715 25.9888 9.04468 23.3905 11.1504 19.7434C13.256 16.0963 14.7574 13.5003 16.1371 11.5377C17.4897 9.61353 18.6272 8.44562 19.9289 7.60538C20.3154 7.35587 20.7141 7.12567 21.1235 6.91566Z" fill="url(#paint3_linear_1426_39248)"/>
<defs>
<linearGradient id="paint0_linear_1426_39248" x1="24.3" y1="20.4733" x2="28.2771" y2="27.2155" gradientUnits="userSpaceOnUse">
<stop offset="0.015" stop-color="#68DDEF"/>
<stop offset="0.165" stop-color="#73C5EF"/>
<stop offset="0.2505" stop-color="#7DB5F4"/>
<stop offset="0.3834" stop-color="#81A7F7"/>
<stop offset="0.5038" stop-color="#829DFF"/>
<stop offset="0.6646" stop-color="#B49DFF"/>
<stop offset="0.7977" stop-color="#D09EF7"/>
<stop offset="1" stop-color="#EBA7CC"/>
</linearGradient>
<linearGradient id="paint1_linear_1426_39248" x1="43.9367" y1="40.1095" x2="47.9138" y2="46.8517" gradientUnits="userSpaceOnUse">
<stop offset="0.015" stop-color="#68DDEF"/>
<stop offset="0.165" stop-color="#73C5EF"/>
<stop offset="0.2505" stop-color="#7DB5F4"/>
<stop offset="0.3834" stop-color="#81A7F7"/>
<stop offset="0.5038" stop-color="#829DFF"/>
<stop offset="0.6646" stop-color="#B49DFF"/>
<stop offset="0.7977" stop-color="#D09EF7"/>
<stop offset="1" stop-color="#EBA7CC"/>
</linearGradient>
<linearGradient id="paint2_linear_1426_39248" x1="28.6415" y1="21.0213" x2="42.8733" y2="45.1477" gradientUnits="userSpaceOnUse">
<stop offset="0.015" stop-color="#68DDEF"/>
<stop offset="0.165" stop-color="#73C5EF"/>
<stop offset="0.2505" stop-color="#7DB5F4"/>
<stop offset="0.3834" stop-color="#81A7F7"/>
<stop offset="0.5038" stop-color="#829DFF"/>
<stop offset="0.6646" stop-color="#B49DFF"/>
<stop offset="0.7977" stop-color="#D09EF7"/>
<stop offset="1" stop-color="#EBA7CC"/>
</linearGradient>
<linearGradient id="paint3_linear_1426_39248" x1="15.0998" y1="-5.08009" x2="54.6229" y2="66.4864" gradientUnits="userSpaceOnUse">
<stop offset="0.015" stop-color="#68DDEF"/>
<stop offset="0.165" stop-color="#73C5EF"/>
<stop offset="0.2505" stop-color="#7DB5F4"/>
<stop offset="0.3834" stop-color="#81A7F7"/>
<stop offset="0.5038" stop-color="#829DFF"/>
<stop offset="0.6646" stop-color="#B49DFF"/>
<stop offset="0.7977" stop-color="#D09EF7"/>
<stop offset="1" stop-color="#EBA7CC"/>
</linearGradient>
</defs>
</svg>
