<svg width="37" height="76" viewBox="0 0 37 76" fill="none" xmlns="http://www.w3.org/2000/svg">
<path d="M18.7402 1.03516C9.31641 1.03516 1.67578 8.67578 1.67578 18.0996C1.67578 23.541 4.26367 28.8164 8.23242 32.2754C8.63672 32.6289 8.86914 33.1387 8.85352 33.6758L8.83203 34.4551C8.83203 35.5918 9.52344 36.6133 10.5781 37.0371C10.5781 37.0371 15.5143 40.64 14.9746 41.457L11.7305 44.916C11.4863 45.1777 11.3496 45.5234 11.3496 45.8809V49.0176C11.3496 49.4355 11.5352 49.8301 11.8535 50.0977L15.6426 53.5977C15.998 53.8965 16.0059 54.4394 15.6582 54.7461L11.8555 58.4687C11.5859 58.707 11.5859 59.1269 11.8555 59.3672L15.6719 62.7715C16.0098 63.0723 16.0098 63.6016 15.6719 63.9023L11.8184 67.3379C11.5625 67.5664 11.5488 67.9609 11.7871 68.207L17.9492 74.5449C18.1855 74.7871 18.5762 74.7871 18.8125 74.5449L25.043 68.1328C25.1523 68.0195 25.2129 67.8691 25.2129 67.7129V38.3418C25.2129 37.9375 25.4375 37.5664 25.7949 37.3769L26.2773 37.1211C27.1875 36.6387 27.7559 35.6914 27.7559 34.6621V34.3301C27.7559 33.7734 28.0195 33.2539 28.4609 32.9141C32.8984 29.4902 35.8066 23.9121 35.8066 18.0996C35.8066 8.67578 28.166 1.03516 18.7402 1.03516ZM18.7402 16.0312C15.957 16.0312 13.7012 13.7754 13.7012 10.9902C13.7012 8.20703 15.957 5.95117 18.7402 5.95117C21.5254 5.95117 23.7812 8.20703 23.7812 10.9902C23.7812 13.7754 21.5254 16.0312 18.7402 16.0312Z" fill="#EDB824"/>
<path d="M18.7401 5.73438C11.9119 5.73438 6.37677 11.2715 6.37677 18.0996C6.37677 24.9277 11.9119 30.4648 18.7401 30.4648C25.5701 30.4648 31.1053 24.9277 31.1053 18.0996C31.1053 11.2715 25.5701 5.73438 18.7401 5.73438ZM18.7401 16.0312C15.9568 16.0312 13.701 13.7754 13.701 10.9902C13.701 8.20703 15.9568 5.95117 18.7401 5.95117C21.5252 5.95117 23.7811 8.20703 23.7811 10.9902C23.7811 13.7754 21.5252 16.0312 18.7401 16.0312Z" fill="#F7C759"/>
<path d="M31.1055 6.33838L6.68555 30.7583C5.97852 29.9829 5.33398 29.1431 4.75977 28.2544L17.2188 15.7974C17.2188 15.7974 20.2689 16.8546 22.2436 14.6788C24.6107 12.0706 23.5375 9.47861 23.5375 9.47861L28.7422 4.27393C29.5918 4.88721 30.3828 5.58057 31.1055 6.33838Z" fill="#FFE9B3"/>
<path d="M35.2246 13.6665L11.5234 37.3657L10.5781 37.0376C9.52344 36.6138 8.83203 35.5923 8.83203 34.4556L8.85352 33.6763C8.86719 33.1997 8.6875 32.7466 8.36328 32.4028L32.6094 8.15674C33.791 9.79932 34.6855 11.6606 35.2246 13.6665Z" fill="#FFE9B3"/>
<g opacity="0.14">
<path d="M18.5832 0.5C8.95098 0.5 1.14258 8.31055 1.14258 17.943C1.14258 27.5752 8.95098 35.3859 18.5832 35.3859C28.218 35.3859 36.0262 27.5752 36.0262 17.943C36.0262 8.31055 28.218 0.5 18.5832 0.5ZM18.5832 32.748C10.4078 32.748 3.78047 26.1184 3.78047 17.943C3.78047 9.76758 10.4078 3.13789 18.5832 3.13789C26.7609 3.13789 33.3883 9.76758 33.3883 17.943C33.3883 26.1184 26.7609 32.748 18.5832 32.748Z" fill="#AF7B12"/>
</g>
<g opacity="0.8">
<path d="M33.309 18.0993C33.309 26.1448 26.7869 32.6669 18.7414 32.6669C10.6959 32.6669 4.17383 26.1448 4.17383 18.0993C4.17383 10.0538 10.6959 3.53174 18.7414 3.53174C26.7869 3.53174 33.309 10.0538 33.309 18.0993Z" stroke="#AF7B12" stroke-width="0.65625" stroke-miterlimit="10"/>
</g>
<path d="M22.6064 39.0708V70.6392L21.2393 72.0474L20.0967 73.2231C20.0771 73.1353 20.0674 73.0454 20.0674 72.9517V39.0708C20.0674 38.3696 20.6357 37.8013 21.3369 37.8013C22.0146 37.8013 22.5674 38.3306 22.6025 39.0005C22.6045 39.0239 22.6064 39.0474 22.6064 39.0708Z" fill="#FFDB45"/>
<path d="M22.6064 39.0708V70.6392L21.2393 72.0474V39.0708C21.2393 38.6938 21.5459 38.3872 21.9229 38.3872C22.2783 38.3872 22.5674 38.6567 22.6025 39.0005C22.6045 39.0239 22.6064 39.0474 22.6064 39.0708Z" fill="#875C1E"/>
<path d="M15.9213 40.9501L15.9658 72.5062L14.5986 71.0999L13.4268 69.8948V65.9026L14.5986 64.8577L15.6709 63.9026C16.0088 63.6019 16.0088 63.0726 15.6709 62.7718L14.5986 61.8147L13.4268 60.7698V56.93L14.5986 55.7835L15.6572 54.7464C16.0049 54.4397 15.9971 53.8968 15.6416 53.5979L14.5986 52.6351L13.4268 51.553V43.1058L14.5986 41.8577L14.9736 41.4573C15.2061 41.2093 15.9213 40.9267 15.9213 40.9501Z" fill="#FFDB45"/>
<path d="M15.9213 40.8832C15.9213 48.983 15.9658 72.506 15.9658 72.506L14.5986 71.0998V64.8576L15.6709 63.9025C16.0088 63.6017 16.0088 63.0724 15.6709 62.7717L14.5986 61.8146V55.7834L15.6572 54.7463C16.0049 54.4396 15.9971 53.8967 15.6416 53.5978L14.5986 52.6349V41.8576L15.3779 40.95C15.3779 40.573 15.9213 40.8832 15.9213 40.8832Z" fill="#875C1E"/>
<path d="M18.7402 1.03516C9.31641 1.03516 1.67578 8.67578 1.67578 18.0996C1.67578 23.541 4.26367 28.8164 8.23242 32.2754C8.63672 32.6289 8.86914 33.1387 8.85352 33.6758L8.83203 34.4551C8.83203 35.4103 9.32031 36.2842 10.1021 36.7904C10.5197 37.0607 13.6432 39.4035 14.6736 40.1439C15.2613 40.5662 15.3238 41.4164 14.8055 41.9213L11.7305 44.916C11.4863 45.1777 11.3496 45.5234 11.3496 45.8809V49.0176C11.3496 49.4355 11.5352 49.8301 11.8535 50.0977L15.6426 53.5977C15.998 53.8965 16.0059 54.4394 15.6582 54.7461L11.8555 58.4687C11.5859 58.707 11.5859 59.1269 11.8555 59.3672L15.6719 62.7715C16.0098 63.0723 16.0098 63.6016 15.6719 63.9023L11.8184 67.3379C11.5625 67.5664 11.5488 67.9609 11.7871 68.207L17.9492 74.5449C18.1855 74.7871 18.5762 74.7871 18.8125 74.5449L25.043 68.1328C25.1523 68.0195 25.2129 67.8691 25.2129 67.7129V38.3418C25.2129 37.9381 25.4359 37.5676 25.7926 37.3783L26.2766 37.1215C27.1869 36.6387 27.7559 35.6926 27.7559 34.6621V34.3301C27.7559 33.7734 28.0195 33.2539 28.4609 32.9141C32.8984 29.4902 35.8066 23.9121 35.8066 18.0996C35.8066 8.67578 28.166 1.03516 18.7402 1.03516ZM18.7402 16.0312C15.957 16.0312 13.7012 13.7754 13.7012 10.9902C13.7012 8.20703 15.957 5.95117 18.7402 5.95117C21.5254 5.95117 23.7813 8.20703 23.7813 10.9902C23.7813 13.7754 21.5254 16.0312 18.7402 16.0312Z" stroke="#AA6F07" stroke-width="1.75" stroke-linecap="round" stroke-linejoin="round"/>
<path d="M8.91803 5.95068C9.32877 5.6167 9.7567 5.30303 10.2005 5.01123" stroke="#FFDB45" stroke-width="1.53125" stroke-linecap="round" stroke-linejoin="round"/>
<path d="M7.96191 29.4783C4.97578 26.6209 3.11621 22.5957 3.11621 18.1363C3.11621 14.6393 4.25977 11.4092 6.19355 8.7998" stroke="#FFDB45" stroke-width="1.53125" stroke-linecap="round" stroke-linejoin="round"/>
<path d="M3.13608 17.3242C3.0724 17.8697 3.06967 18.5803 3.17924 19.3984" stroke="white" stroke-width="1.3125" stroke-linecap="round" stroke-linejoin="round"/>
<path d="M3.46243 14.9961C3.46243 14.9961 3.41809 15.1688 3.36047 15.4566" stroke="white" stroke-width="1.3125" stroke-linecap="round" stroke-linejoin="round"/>
</svg>
