<svg width="48" height="56" viewBox="0 0 48 56" fill="none" xmlns="http://www.w3.org/2000/svg">
<path d="M45.326 54.7857L3.07484 54.7857C2.30365 54.7857 1.67847 54.1607 1.67847 53.3895L1.67847 25.7712C1.67847 25 2.30365 24.375 3.07484 24.375L45.326 24.375C46.0972 24.375 46.7223 25 46.7223 25.7712L46.7223 53.3895C46.7223 54.1607 46.0972 54.7857 45.326 54.7857Z" fill="#C3BC78"/>
<g opacity="0.2">
<path d="M46.4879 30.2183C46.4879 30.2183 45.6342 31.2252 42.6734 31.2252L5.72784 31.2252C3.07446 31.2252 1.91187 30.2183 1.91187 30.2183" stroke="#66582E" stroke-width="1.96875" stroke-linecap="round" stroke-linejoin="round"/>
</g>
<path d="M46.4879 25.451C45.6644 26.6788 44.2631 27.4872 42.6734 27.4872L5.72784 27.4872C4.13659 27.4872 2.73539 26.6788 1.91187 25.451C2.16224 25.0755 2.58909 24.8281 3.07476 24.8281L45.3265 24.8281C45.8122 24.8281 46.239 25.0755 46.4879 25.451Z" fill="#F4E9AB"/>
<path d="M46.4879 25.4512C45.6644 26.6789 44.2631 27.4874 42.6734 27.4874L5.72784 27.4874C4.13659 27.4874 2.73539 26.6789 1.91187 25.4512" stroke="#EAE2A7" stroke-width="1.3125" stroke-linecap="round" stroke-linejoin="round"/>
<path d="M46.4879 30.7026C46.4879 30.7026 45.6342 31.7096 42.6734 31.7096L5.72784 31.7096C3.07446 31.7096 1.91187 30.7026 1.91187 30.7026" stroke="#D8D193" stroke-width="1.3125" stroke-linecap="round" stroke-linejoin="round"/>
<g opacity="0.2">
<path d="M46.4879 39.0913C46.4879 39.0913 45.6342 40.0982 42.6734 40.0982L5.72784 40.0982C3.07446 40.0982 1.91187 39.0913 1.91187 39.0913" stroke="#66582E" stroke-width="1.96875" stroke-linecap="round" stroke-linejoin="round"/>
</g>
<g opacity="0.2">
<path d="M46.4879 47.8423C46.4879 47.8423 45.6342 48.8492 42.6734 48.8492L5.72784 48.8492C3.07446 48.8492 1.91187 47.8423 1.91187 47.8423" stroke="#66582E" stroke-width="1.96875" stroke-linecap="round" stroke-linejoin="round"/>
</g>
<path d="M46.4879 39.5439C46.4879 39.5439 45.6342 40.5509 42.6734 40.5509L5.72784 40.5509C3.07446 40.5509 1.91187 39.5439 1.91187 39.5439" stroke="#D8D193" stroke-width="1.3125" stroke-linecap="round" stroke-linejoin="round"/>
<path d="M46.4879 48.3452C46.4879 48.3452 45.6342 49.3521 42.6734 49.3521L5.72784 49.3521C3.07446 49.3521 1.91187 48.3452 1.91187 48.3452" stroke="#D8D193" stroke-width="1.3125" stroke-linecap="round" stroke-linejoin="round"/>
<path d="M46.4879 35.5962C46.4879 35.5962 45.6342 36.6031 42.6734 36.6031L5.72784 36.6031C3.07446 36.6031 1.91187 35.5962 1.91187 35.5962" stroke="#D8D193" stroke-width="1.3125" stroke-linecap="round" stroke-linejoin="round"/>
<path d="M46.4879 44.3975C46.4879 44.3975 45.6342 45.4044 42.6734 45.4044L5.72784 45.4044C3.07446 45.4044 1.91187 44.3975 1.91187 44.3975" stroke="#D8D193" stroke-width="1.3125" stroke-linecap="round" stroke-linejoin="round"/>
<path d="M46.4879 35.1436C46.4879 35.1436 45.6342 36.1505 42.6734 36.1505L5.72784 36.1505C3.07446 36.1505 1.91187 35.1436 1.91187 35.1436" stroke="#9B9157" stroke-width="1.3125" stroke-linecap="round" stroke-linejoin="round"/>
<path d="M46.4879 43.9448C46.4879 43.9448 45.6342 44.9518 42.6734 44.9518L5.72784 44.9518C3.07446 44.9518 1.91187 43.9448 1.91187 43.9448" stroke="#9B9157" stroke-width="1.3125" stroke-linecap="round" stroke-linejoin="round"/>
<path d="M1.91187 54.258C2.73539 53.2178 4.13659 52.5327 5.72633 52.5327L42.6719 52.5327C44.2631 52.5327 45.6644 53.2178 46.4879 54.258C46.2375 54.5763 45.8107 54.7858 45.325 54.7858L3.07325 54.7858C2.58758 54.7858 2.16073 54.5763 1.91187 54.258Z" fill="#514523"/>
<g opacity="0.3">
<path d="M46.7215 25.7707L46.7215 53.389C46.7215 54.1612 46.0971 54.7856 45.3263 54.7856L22.156 54.7856L25.4291 53.2552C26.3722 52.8141 26.975 51.8669 26.975 50.8258L26.975 28.9636C26.975 28.0443 26.5041 27.1891 25.7273 26.6975L22.156 24.4373L22.1318 24.3755L45.3263 24.3755C46.0969 24.3755 46.7215 25.0001 46.7215 25.7707Z" fill="#7C7038"/>
</g>
<g opacity="0.3">
<path d="M45.327 24.3755L43.0646 24.3755L36.8806 24.3755L35.0088 24.3755C35.1566 24.6047 35.235 24.8747 35.2275 25.1538L35.2109 25.7556C35.2109 26.6334 35.7448 27.4222 36.5593 27.7495C36.5593 27.7495 40.3708 30.5323 39.9545 31.1628L37.4492 33.834C37.2607 34.0361 37.1551 34.3031 37.1551 34.5791L37.1551 37.0014C37.1551 37.3242 37.2984 37.6288 37.5442 37.8355L40.4703 40.5383C40.7448 40.7691 40.7508 41.1884 40.4824 41.4252L37.5457 44.3C37.3376 44.484 37.3376 44.8083 37.5457 44.9938L40.4929 47.6228C40.7539 47.855 40.7539 48.2638 40.4929 48.4961L37.5171 51.1491C37.3195 51.3256 37.3089 51.6303 37.4929 51.8203L40.3753 54.7856L44.7931 54.7856L46.7222 52.7992L46.7222 25.7707C46.7222 24.9999 46.0977 24.3755 45.327 24.3755Z" fill="#7C7038"/>
</g>
<g opacity="0.3">
<path d="M45.1072 24.5332L3.29406 24.5332C2.53132 24.5332 1.91187 25.1511 1.91187 25.9139L1.91187 53.2456C1.91187 54.0099 2.53132 54.6278 3.29406 54.6278L45.1072 54.6278C45.8699 54.6278 46.4879 54.0099 46.4879 53.2456L46.4879 25.9139C46.4879 25.1511 45.8699 24.5332 45.1072 24.5332ZM44.434 51.1738C44.434 51.9366 43.8161 52.556 43.0534 52.556L5.3479 52.556C4.58365 52.556 3.9657 51.9366 3.9657 51.1738L3.9657 28.3798C3.9657 27.6155 4.58365 26.9976 5.3479 26.9976L43.0534 26.9976C43.8161 26.9976 44.434 27.6155 44.434 28.3798L44.434 51.1738Z" fill="#7C7038"/>
</g>
<path d="M45.326 54.7857L3.07484 54.7857C2.30365 54.7857 1.67847 54.1607 1.67847 53.3895L1.67847 25.7712C1.67847 25 2.30365 24.375 3.07484 24.375L45.326 24.375C46.0972 24.375 46.7223 25 46.7223 25.7712L46.7223 53.3895C46.7223 54.1607 46.0972 54.7857 45.326 54.7857Z" stroke="#8E8342" stroke-width="1.75" stroke-miterlimit="10"/>
<path d="M10.6248 27.064L12.0036 27.064" stroke="white" stroke-width="1.3125" stroke-linecap="round" stroke-linejoin="round"/>
<path d="M8.71143 27.064L9.12952 27.064" stroke="white" stroke-width="1.3125" stroke-linecap="round" stroke-linejoin="round"/>
<path d="M46.5379 54.0826C46.2928 54.4845 45.8311 54.7858 45.326 54.7858L3.07483 54.7858C2.59293 54.7858 2.12476 54.4736 1.87378 54.1022" stroke="#3A3211" stroke-width="1.75" stroke-miterlimit="10"/>
<path d="M42.6532 19.6683V24.3229L36.4692 24.3229V19.6683C36.4692 17.0574 35.6502 14.6351 34.2535 12.6442C33.1359 11.0469 31.6457 9.72715 29.9111 8.81011C28.4194 8.02278 26.7452 7.53258 24.9715 7.42399C24.9685 7.42248 24.964 7.42248 24.9609 7.42248C24.7091 7.40589 24.4557 7.39835 24.2008 7.39835C17.4346 7.39835 11.9308 12.9021 11.9308 19.6683L11.9308 24.3229L5.74683 24.3229L5.74683 19.6683C5.74683 14.9383 7.53566 10.6185 10.4723 7.35008C10.4723 7.34857 10.4738 7.34857 10.4753 7.34706C11.9399 5.7166 13.691 4.34708 15.6472 3.31993C18.1601 1.99867 21.0122 1.2415 24.0364 1.21586C24.0907 1.21436 24.1465 1.21436 24.2008 1.21436C34.3757 1.21436 42.6532 9.49336 42.6532 19.6683Z" fill="#BAD9F7"/>
<g opacity="0.4">
<path d="M38.466 19.7449L38.466 24.3226H36.4706L36.4706 19.668C36.4706 17.0571 35.6516 14.6348 34.2549 12.6439C33.1372 11.0466 31.6471 9.72685 29.9125 8.8098C28.4208 8.02248 26.7466 7.53228 24.9729 7.42369C24.9699 7.42218 24.9653 7.42218 24.9623 7.42218C24.7104 7.40559 24.457 7.39805 24.2021 7.39805C17.4359 7.39805 11.9322 12.9018 11.9322 19.668L11.9322 24.3226L9.93823 24.3226L9.93823 19.7449C9.93823 11.8807 16.3364 5.03003 24.2021 5.03003C25.4163 5.03003 26.5973 5.19292 27.7225 5.49911C33.8914 7.17029 38.466 13.0949 38.466 19.7449Z" fill="#5E4E41"/>
</g>
<g opacity="0.5">
<path d="M42.6539 19.6683L42.6539 24.3229L38.4307 24.3229V19.6683C38.3191 17.6577 37.4153 9.2911 30.822 5.03033C29.2952 4.04361 25.0819 1.79203 19.0315 3.08765C15.1356 3.92189 10.6088 7.2445 10.4761 7.34706C11.7476 5.60801 13.6269 4.28373 15.648 3.31993C16.1729 3.06804 16.7068 2.8418 17.2423 2.63818C19.7596 1.68193 22.3071 1.2415 24.0371 1.21586C24.0914 1.21436 24.1472 1.21436 24.2015 1.21436C34.3764 1.21436 42.6539 9.49336 42.6539 19.6683Z" fill="#70A3D6"/>
</g>
<path d="M42.6532 19.6683V23.7051C42.6532 24.0463 42.3766 24.3229 42.0354 24.3229L37.087 24.3229C36.7458 24.3229 36.4692 24.0463 36.4692 23.7051V19.6683C36.4692 17.0574 35.6502 14.6351 34.2535 12.6442C33.1359 11.0469 31.6457 9.72715 29.9111 8.81011C28.4194 8.02278 26.7452 7.53258 24.9715 7.42399C24.9685 7.42248 24.964 7.42248 24.9609 7.42248C24.7223 7.40679 24.4822 7.3991 24.2409 7.39835C17.4703 7.37723 11.9308 13.0205 11.9308 19.7911L11.9308 23.7051C11.9308 24.0463 11.6542 24.3229 11.313 24.3229L6.36462 24.3229C6.02345 24.3229 5.74683 24.0463 5.74683 23.7051L5.74683 19.6683C5.74683 14.9383 7.53566 10.6185 10.4723 7.35008C10.4723 7.34857 10.4738 7.34857 10.4753 7.34707C11.9399 5.7166 13.691 4.34708 15.6472 3.31993C18.1601 1.99867 21.0122 1.2415 24.0364 1.21586C24.0907 1.21436 24.1465 1.21436 24.2008 1.21436C34.3757 1.21436 42.6532 9.49336 42.6532 19.6683Z" stroke="#6A7D9E" stroke-width="1.75" stroke-miterlimit="10"/>
<path d="M12.0271 8.18588C12.3254 7.86898 12.3463 7.8806 12.6874 7.59131" stroke="#E9F6FF" stroke-width="3.0625" stroke-linecap="round" stroke-linejoin="round"/>
<path d="M7.59448 18.1209C7.59448 18.1209 7.68483 14.4364 9.81861 11.2563" stroke="#E9F6FF" stroke-width="3.0625" stroke-linecap="round" stroke-linejoin="round"/>
</svg>
