<svg width="112" height="112" viewBox="0 0 112 112" fill="none" xmlns="http://www.w3.org/2000/svg">
    <mask id="mask0_1_22819" style="mask-type:luminance" maskUnits="userSpaceOnUse" x="0" y="0"
        width="112" height="112">
        <path d="M112 0H0V112H112V0Z" fill="white" />
    </mask>
    <g mask="url(#mask0_1_22819)">
        <mask id="mask1_1_22819" style="mask-type:luminance" maskUnits="userSpaceOnUse" x="0" y="0"
            width="112" height="112">
            <path d="M0 0H112V112H0V0Z" fill="white" />
        </mask>
        <g mask="url(#mask1_1_22819)">
            <path
                d="M106.825 97.4936C107.09 95.6602 105.709 90.4848 97.9602 90.2022C98.6289 88.1455 91.0719 84.9002 82.5002 85.6022C79.1022 82.1414 70.2439 82.729 64.2334 84.2132C61.8921 80.853 42.151 81.6772 41.5212 85.1991C37.8091 84.5032 34.4118 84.9873 33.1649 86.3895C21.3515 85.9949 19.4918 88.4798 19.4856 89.7822C8.98891 89.964 12.2763 94.6713 12.2763 94.6713C5.40928 95.9222 4.82806 99.522 6.10709 101.111C6.10709 101.111 10.8651 110.272 59.7555 109.946C108.646 109.619 106.825 97.4936 106.825 97.4936Z"
                fill="#FFFF00" />
            <path
                d="M104.137 91.9749C104.137 91.9749 107.623 97.8829 102.892 100.563C98.1605 103.244 90.6722 104.126 85.0869 101.48C85.2035 105.657 74.3598 109.859 57.0921 108.255C39.8246 106.65 39.5311 103.229 39.5311 103.229C39.5311 103.229 30.6875 109.461 18.4666 105.286C6.24543 101.112 12.2766 94.5489 12.2766 94.5489C12.2766 94.5489 2.35168 96.0025 6.24521 101.112C13.411 110.516 55.2898 109.87 59.5881 109.956C63.8863 110.042 103.989 109.847 106.963 97.4953C106.993 93.7656 104.137 91.9749 104.137 91.9749Z"
                fill="#FFDA00" />
            <path
                d="M6.10709 100.988C4.82806 99.3995 5.40928 95.7995 12.2763 94.5489C12.2763 94.5489 8.98891 89.8416 19.4856 89.6596C19.4918 88.3574 21.3054 85.8721 33.1186 86.267C35.3762 84.7785 37.7171 84.5239 41.4751 85.2143C42.105 81.6521 61.9378 80.7764 64.2791 84.1366C70.4274 82.5204 79.1022 82.0186 82.5002 85.4794C91.0719 84.7777 98.6289 88.0232 97.9602 90.0799C105.708 90.3625 107.09 95.5379 106.825 97.3712"
                stroke="#FFB600" stroke-linecap="round" stroke-linejoin="round" />
            <path
                d="M17.3613 93.4388C17.3613 93.4388 19.8938 91.7531 22.6179 93.7365C24.9176 92.8182 26.9406 93.1281 27.9751 94.3505"
                stroke="#FFB600" stroke-linecap="round" stroke-linejoin="round" />
            <path
                d="M20.9131 95.4716C20.9131 95.4716 21.3333 94.1313 22.6176 93.7374L20.9131 95.4716Z"
                fill="#FFFF00" />
            <path d="M20.9131 95.4716C20.9131 95.4716 21.3333 94.1313 22.6176 93.7374"
                stroke="#FFB600" stroke-linecap="round" stroke-linejoin="round" />
            <path
                d="M23.9883 94.4467C23.9883 94.4467 25.1743 93.8979 26.1657 94.3516L23.9883 94.4467Z"
                fill="#FF8939" />
            <path d="M23.9883 94.4467C23.9883 94.4467 25.1743 93.8979 26.1657 94.3516"
                stroke="white" stroke-linecap="round" stroke-linejoin="round" />
            <path
                d="M85.3359 95.1583C85.3359 95.1583 87.7588 93.597 90.2841 95.9164C90.4186 94.2434 94.4655 92.4359 96.7971 94.7798"
                stroke="#FFB600" stroke-linecap="round" stroke-linejoin="round" />
            <path d="M91.9727 95.2119C92.0103 95.1058 93.1281 94.4438 94.114 94.6337" stroke="white"
                stroke-linecap="round" stroke-linejoin="round" />
            <path d="M87.0254 86.4464C87.0254 86.4464 89.1363 86.5404 90.1555 86.9162"
                stroke="white" stroke-linecap="round" stroke-linejoin="round" />
            <path d="M91.6426 87.3848C91.6426 87.3848 92.4093 87.665 93.0382 87.8398" stroke="white"
                stroke-linecap="round" stroke-linejoin="round" />
            <path
                d="M39.0402 87.2896C39.0402 87.2896 37.9843 90.1977 41.8684 89.8153C45.7525 89.4329 45.0335 86.858 44.5809 86.5463C44.1283 86.2346 40.275 85.9946 39.0402 87.2896Z"
                fill="#FFDA00" />
            <path
                d="M38.7928 86.5592C38.7434 86.0845 39.0586 85.6435 41.2946 85.3902C43.5307 85.1371 44.1362 85.6322 44.1611 86.0379C44.1861 86.4439 45.0195 88.5356 41.5814 88.8683C38.3581 89.1803 38.8184 86.806 38.7928 86.5592Z"
                fill="#FFDA00" />
            <path
                d="M38.7928 86.5592C38.7434 86.0845 39.0586 85.6435 41.2946 85.3902C43.5307 85.1371 44.1362 85.6322 44.1611 86.0379C44.1861 86.4439 45.0195 88.5356 41.5814 88.8683C38.3581 89.1803 38.8184 86.806 38.7928 86.5592Z"
                stroke="#FFB600" stroke-linecap="round" stroke-linejoin="round" />
            <path
                d="M38.793 86.5592C38.7436 86.0845 39.1319 85.1122 41.3679 84.8591C43.604 84.6058 44.1364 85.6321 44.1614 86.0379C44.1863 86.4439 44.0747 87.5512 41.5989 87.7599C39.1231 87.9684 38.8186 86.806 38.793 86.5592Z"
                fill="#FFFF00" />
            <path
                d="M38.793 86.5592C38.7436 86.0845 39.1319 85.1122 41.3679 84.8591C43.604 84.6058 44.1364 85.6321 44.1614 86.0379C44.1863 86.4439 44.0747 87.5512 41.5989 87.7599C39.1231 87.9684 38.8186 86.806 38.793 86.5592Z"
                stroke="#FFB600" stroke-linecap="round" stroke-linejoin="round" />
            <path d="M40.6766 85.7012C40.6766 85.7012 40.0105 85.915 39.9346 86.1759" stroke="white"
                stroke-linecap="round" stroke-linejoin="round" />
            <path
                d="M69.2782 86.8137C69.2782 86.8137 67.2836 89.1789 71.061 90.1602C74.8386 91.1415 75.0521 88.4767 74.7349 88.028C74.4177 87.5791 70.8838 86.0245 69.2782 86.8137Z"
                fill="#FFDA00" />
            <path
                d="M69.2975 86.0418C69.415 85.5791 69.863 85.274 72.0489 85.8079C74.2351 86.3419 74.6326 87.0152 74.516 87.4048C74.3994 87.7946 74.4598 90.0453 71.1181 89.1712C67.9852 88.3518 69.2365 86.2822 69.2975 86.0418Z"
                fill="#FFDA00" />
            <path
                d="M69.2975 86.0418C69.415 85.5791 69.863 85.274 72.0489 85.8079C74.2351 86.3419 74.6326 87.0152 74.516 87.4048C74.3994 87.7946 74.4598 90.0453 71.1181 89.1712C67.9852 88.3518 69.2365 86.2822 69.2975 86.0418Z"
                stroke="#FFB600" stroke-linecap="round" stroke-linejoin="round" />
            <path
                d="M69.2977 86.0417C69.4152 85.5791 70.1149 84.8006 72.3011 85.3345C74.4871 85.8683 74.6328 87.0152 74.5162 87.4048C74.3996 87.7946 73.9129 88.7954 71.5171 88.1369C69.1214 87.4785 69.2367 86.2822 69.2977 86.0417Z"
                fill="#FFFF00" />
            <path
                d="M69.2977 86.0417C69.4152 85.5791 70.1149 84.8006 72.3011 85.3345C74.4871 85.8683 74.6328 87.0152 74.5162 87.4048C74.3996 87.7946 73.9129 88.7954 71.5171 88.1369C69.1214 87.4785 69.2367 86.2822 69.2977 86.0417Z"
                stroke="#FFB600" stroke-linecap="round" stroke-linejoin="round" />
            <path d="M71.3621 85.886C71.3621 85.886 70.6632 85.8572 70.502 86.0757" stroke="white"
                stroke-linecap="round" stroke-linejoin="round" />
            <path
                d="M87.0184 97.7799L90.5899 92.424L92.6439 93.5908L93.7057 96.2911L93.1614 98.655L87.0184 97.7799Z"
                fill="#859AFF" />
            <path
                d="M87.0184 97.7799L90.5899 92.424L92.6439 93.5908L93.7057 96.2911L93.1614 98.655L87.0184 97.7799Z"
                stroke="#4169F8" stroke-linecap="round" stroke-linejoin="round" />
            <path d="M90.9531 94.9922L91.7165 97.0773L93.1609 98.655" fill="#859AFF" />
            <path d="M90.9531 94.9922L91.7165 97.0773L93.1609 98.655" stroke="#4169F8"
                stroke-linecap="round" stroke-linejoin="round" />
            <path d="M90.5898 92.424L90.6429 93.5398L90.5898 92.424Z" fill="#859AFF" />
            <path d="M90.5898 92.424L90.6429 93.5398" stroke="#4169F8" stroke-linecap="round"
                stroke-linejoin="round" />
            <path d="M89.9373 97.2877L91.7172 97.0776L89.9373 97.2877Z" fill="#859AFF" />
            <path d="M89.9373 97.2877L91.7172 97.0776" stroke="#4169F8" stroke-linecap="round"
                stroke-linejoin="round" />
            <path d="M92.0898 94.1465L92.4295 95.2086L92.0898 94.1465Z" fill="#859AFF" />
            <path d="M92.0898 94.1465L92.4295 95.2086" stroke="white" stroke-linecap="round"
                stroke-linejoin="round" />
            <path
                d="M30.3194 90.3531C30.3194 90.3531 36.4712 88.9892 41.5339 92.4596C42.885 93.4932 43.1823 94.3918 43.1823 94.3918C43.1823 94.3918 50.7425 94.3065 54.4778 97.1491C59.2076 93.7814 69.3223 94.434 69.3223 94.434C69.3223 94.434 69.5513 93.7925 70.2999 93.5103C72.9363 91.6382 78.3298 90.1878 83.5203 92.8812C85.7001 93.8193 84.6261 99.0556 86.1951 101.181C88.6576 104.314 78.3324 111.286 49.276 108.454C32.1302 106.782 28.7984 104.741 28.7116 96.4462C28.6504 90.5905 30.3194 90.3531 30.3194 90.3531Z"
                fill="#FFFF00" />
            <path
                d="M30.2656 90.4719C30.2656 90.4719 36.9329 88.2144 43.1825 94.3916C46.4735 94.0407 52.2711 95.4091 54.4779 97.1489C58.6938 94.5836 66.2438 93.8379 69.3227 94.4338C70.9323 93.199 71.2405 92.7897 73.6767 93.0362"
                stroke="#FFB600" stroke-linecap="round" stroke-linejoin="round" />
            <path d="M30.2461 90.3446C30.2461 90.3446 36.8888 89.1768 40.7735 92.417"
                stroke="#FFB600" stroke-linecap="round" stroke-linejoin="round" />
            <path d="M67.5959 94.0836C67.5959 94.0836 66.7343 93.5478 64.9785 93.6358"
                stroke="#FFB600" stroke-linecap="round" stroke-linejoin="round" />
            <path d="M41.3242 92.1964C41.3242 92.1964 44.1365 92.5428 47.1777 93.4104"
                stroke="#FFB600" stroke-linecap="round" stroke-linejoin="round" />
            <path d="M83.6791 92.8788C83.6791 92.8788 75.4101 88.9291 70.2422 93.7865"
                stroke="#FFB600" stroke-linecap="round" stroke-linejoin="round" />
            <path
                d="M42.6523 91.6973C42.6523 91.6973 43.5408 91.9662 44.4799 92.5756L42.6523 91.6973Z"
                fill="#FF8939" />
            <path d="M42.6523 91.6973C42.6523 91.6973 43.5408 91.9662 44.4799 92.5756"
                stroke="white" stroke-linecap="round" stroke-linejoin="round" />
            <path
                d="M59.2812 95.1783C59.2812 95.1783 60.1637 94.7463 61.6959 94.7325L59.2812 95.1783Z"
                fill="#FF8939" />
            <path d="M59.2812 95.1783C59.2812 95.1783 60.1637 94.7463 61.6959 94.7325"
                stroke="white" stroke-linecap="round" stroke-linejoin="round" />
            <path
                d="M91.7493 91.3887C91.7493 91.3887 84.6892 91.546 82.5004 90.3234C80.3116 89.1008 81.4401 87.2003 83.5935 87.4407C85.7466 87.6809 91.7493 91.3887 91.7493 91.3887Z"
                fill="#FFCE00" />
            <path
                d="M92.1981 91.0359L89.6929 81.5058L86.1391 82.1728L83.2584 85.5535L82.8701 89.2458L92.1981 91.0359Z"
                fill="#859AFF" />
            <path
                d="M92.1981 91.0359L89.6929 81.5058L86.1391 82.1728L83.2584 85.5535L82.8701 89.2458L92.1981 91.0359Z"
                stroke="#4169F8" stroke-linecap="round" stroke-linejoin="round" />
            <path d="M87.8891 85.0419L85.7462 87.6807L82.8701 89.2459" fill="#859AFF" />
            <path d="M87.8891 85.0419L85.7462 87.6807L82.8701 89.2459" stroke="#4169F8"
                stroke-linecap="round" stroke-linejoin="round" />
            <path d="M89.6937 81.5058L89.0615 83.0948L89.6937 81.5058Z" fill="#859AFF" />
            <path d="M89.6937 81.5058L89.0615 83.0948" stroke="#4169F8" stroke-linecap="round"
                stroke-linejoin="round" />
            <path d="M88.2185 88.8707L85.7471 87.6816L88.2185 88.8707Z" fill="#859AFF" />
            <path d="M88.2185 88.8707L85.7471 87.6816" stroke="#4169F8" stroke-linecap="round"
                stroke-linejoin="round" />
            <path d="M86.6658 83.2538L85.6455 84.6223L86.6658 83.2538Z" fill="#859AFF" />
            <path d="M86.6658 83.2538L85.6455 84.6223" stroke="white" stroke-linecap="round"
                stroke-linejoin="round" />
            <path
                d="M56.7362 88.9495L71.02 74.8008L66.216 69.2017L57.3034 67.5605L50.3831 70.6411L56.7362 88.9495Z"
                fill="#859AFF" />
            <path
                d="M56.7362 88.9495L71.02 74.8008L66.216 69.2017L57.3034 67.5605L50.3831 70.6411L56.7362 88.9495Z"
                stroke="#4169F8" stroke-linecap="round" stroke-linejoin="round" />
            <path d="M62.9337 75.22L56.0849 74.1256L50.3852 70.6403" fill="#859AFF" />
            <path d="M62.9337 75.22L56.0849 74.1256L50.3852 70.6403" stroke="#4169F8"
                stroke-linecap="round" stroke-linejoin="round" />
            <path d="M71.0199 74.8015L67.5673 75.3055L71.0199 74.8015Z" fill="#859AFF" />
            <path d="M71.0199 74.8015L67.5673 75.3055" stroke="#4169F8" stroke-linecap="round"
                stroke-linejoin="round" />
            <path d="M56.5041 79.7089L56.084 74.1288L56.5041 79.7089Z" fill="#859AFF" />
            <path d="M56.5041 79.7089L56.084 74.1288" stroke="#4169F8" stroke-linecap="round"
                stroke-linejoin="round" />
            <path d="M64.8426 71.2353L61.3836 70.8286L64.8426 71.2353Z" fill="#859AFF" />
            <path d="M64.8426 71.2353L61.3836 70.8286" stroke="white" stroke-linecap="round"
                stroke-linejoin="round" />
            <path
                d="M19.0117 96.84L14.7334 94.1693L15.5986 92.5335L17.6885 91.6386L19.552 92.0087L19.0117 96.84Z"
                fill="#859AFF" />
            <path
                d="M19.0117 96.84L14.7334 94.1693L15.5986 92.5335L17.6885 91.6386L19.552 92.0087L19.0117 96.84Z"
                stroke="#4169F8" stroke-linecap="round" stroke-linejoin="round" />
            <path d="M16.7354 93.8239L18.3504 93.1771L19.552 92.0087" fill="#859AFF" />
            <path d="M16.7354 93.8239L18.3504 93.1771L19.552 92.0087" stroke="#4169F8"
                stroke-linecap="round" stroke-linejoin="round" />
            <path d="M14.7334 94.1693L15.6062 94.1015" stroke="#4169F8" stroke-linecap="round"
                stroke-linejoin="round" />
            <path d="M18.5566 94.5663L18.3506 93.1777" stroke="#4169F8" stroke-linecap="round"
                stroke-linejoin="round" />
            <path d="M16.0469 92.9549L16.8707 92.664L16.0469 92.9549Z" fill="#859AFF" />
            <path d="M16.0469 92.9549L16.8707 92.664" stroke="white" stroke-linecap="round"
                stroke-linejoin="round" />
            <path
                d="M32.0111 97.0036C32.0111 97.0036 29.9529 100.925 37.8524 99.9162C39.234 101.723 42.3278 101.012 43.0265 99.3304C43.7249 97.6491 34.619 95.1175 32.0111 97.0036Z"
                fill="#FFDA00" />
            <path
                d="M32.012 96.0941C32.0354 95.5618 32.4779 95.1237 35.1261 95.1928C37.7743 95.2619 38.3953 95.9035 38.3551 96.3559C38.3151 96.8083 38.9291 99.2497 34.8669 99.0809C31.0585 98.9225 31.9997 96.3708 32.012 96.0941Z"
                fill="#FFDA00" />
            <path
                d="M32.012 96.0941C32.0354 95.5618 32.4779 95.1237 35.1261 95.1928C37.7743 95.2619 38.3953 95.9035 38.3551 96.3559C38.3151 96.8083 38.9291 99.2497 34.8669 99.0809C31.0585 98.9225 31.9997 96.3708 32.012 96.0941Z"
                stroke="#FFB600" stroke-linecap="round" stroke-linejoin="round" />
            <path
                d="M32.0113 96.0945C32.0347 95.5623 32.6531 94.5484 35.3013 94.6177C37.9497 94.6868 38.3947 95.9042 38.3544 96.3565C38.3144 96.8089 37.9959 98.0151 35.076 97.8594C32.1559 97.7034 31.9991 96.3712 32.0113 96.0945Z"
                fill="#FFFF00" />
            <path
                d="M32.0113 96.0945C32.0347 95.5623 32.6531 94.5484 35.3013 94.6177C37.9497 94.6868 38.3947 95.9042 38.3544 96.3565C38.3144 96.8089 37.9959 98.0151 35.076 97.8594C32.1559 97.7034 31.9991 96.3712 32.0113 96.0945Z"
                stroke="#FFB600" stroke-linecap="round" stroke-linejoin="round" />
            <path d="M33.5039 95.7276L35.5949 97.0364L36.3975 95.468L33.5039 95.7276Z"
                fill="#FFFF00" />
            <path d="M33.5039 95.7276L35.5949 97.0364L36.3975 95.468L33.5039 95.7276Z"
                stroke="#FFB600" stroke-linecap="round" stroke-linejoin="round" />
            <path d="M35.0771 95.587L35.5676 96.952L35.0771 95.587Z" fill="#FFFF00" />
            <path d="M35.0771 95.587L35.5676 96.952" stroke="#FFB600" stroke-linecap="round"
                stroke-linejoin="round" />
            <path
                d="M26.4694 96.3091C26.4694 96.3091 27.3204 98.8838 25.5531 99.5405C23.7856 100.197 20.986 99.4902 20.2878 98.9363C19.5895 98.3822 17.9539 94.5952 26.4694 96.3091Z"
                fill="#FFDA00" />
            <path
                d="M20.0358 94.5894C20.1612 93.9951 20.7148 93.5838 23.5223 94.1491C26.3297 94.7146 26.8703 95.5502 26.7421 96.0518C26.6141 96.5531 26.8079 99.4122 22.5134 98.4744C18.4871 97.5951 19.9707 94.8983 20.0358 94.5894Z"
                fill="#FFDA00" />
            <path
                d="M20.0358 94.5894C20.1612 93.9951 20.7148 93.5838 23.5223 94.1491C26.3297 94.7146 26.8703 95.5502 26.7421 96.0518C26.6141 96.5531 26.8079 99.4122 22.5134 98.4744C18.4871 97.5951 19.9707 94.8983 20.0358 94.5894Z"
                stroke="#FFB600" stroke-linecap="round" stroke-linejoin="round" />
            <path
                d="M20.0355 94.5899C20.1608 93.9956 21.0102 92.9692 23.8177 93.5347C26.6251 94.0999 26.8699 95.5509 26.7417 96.0525C26.6137 96.5539 26.047 97.8517 22.9665 97.139C19.8861 96.4261 19.9703 94.8988 20.0355 94.5899Z"
                fill="#FFFF00" />
            <path
                d="M20.0355 94.5899C20.1608 93.9956 21.0102 92.9692 23.8177 93.5347C26.6251 94.0999 26.8699 95.5509 26.7417 96.0525C26.6137 96.5539 26.047 97.8517 22.9665 97.139C19.8861 96.4261 19.9703 94.8988 20.0355 94.5899Z"
                stroke="#FFB600" stroke-linecap="round" stroke-linejoin="round" />
            <path d="M21.6943 94.4522L23.6745 96.3094L24.8251 94.6933L21.6943 94.4522Z"
                fill="#FFFF00" />
            <path d="M21.6943 94.4522L23.6745 96.3094L24.8251 94.6933L21.6943 94.4522Z"
                stroke="#E89F00" stroke-linecap="round" stroke-linejoin="round" />
            <path d="M23.3965 94.5831L23.6612 96.2084L23.3965 94.5831Z" fill="#FFFF00" />
            <path d="M23.3965 94.5831L23.6612 96.2084" stroke="#E89F00" stroke-linecap="round"
                stroke-linejoin="round" />
            <path d="M20.7119 94.6124C20.7119 94.6124 20.8222 95.4239 21.5948 95.8194"
                stroke="white" stroke-linecap="round" stroke-linejoin="round" />
            <path
                d="M25.7053 89.9465C25.655 89.9463 23.8584 90.3019 23.8584 90.3019L30.4918 91.8013L31.148 91.0422L25.7053 89.9465Z"
                fill="#FFDA00" />
            <path
                d="M30.9769 91.0419L24.7373 89.4571L25.154 87.132L27.3468 85.2317L29.7567 84.9581L30.9769 91.0419Z"
                fill="#859AFF" />
            <path
                d="M30.9769 91.0419L24.7373 89.4571L25.154 87.132L27.3468 85.2317L29.7567 84.9581L30.9769 91.0419Z"
                stroke="#4169F8" stroke-linecap="round" stroke-linejoin="round" />
            <path d="M27.0381 88.2597L28.7502 86.8457L29.7567 84.9583" fill="#859AFF" />
            <path d="M27.0381 88.2597L28.7502 86.8457L29.7567 84.9583" stroke="#4169F8"
                stroke-linecap="round" stroke-linejoin="round" />
            <path d="M29.5406 88.454L28.75 86.8458L29.5406 88.454Z" fill="#859AFF" />
            <path d="M29.5406 88.454L28.75 86.8458" stroke="#4169F8" stroke-linecap="round"
                stroke-linejoin="round" />
            <path d="M25.8633 87.4697L26.7518 86.796L25.8633 87.4697Z" fill="#859AFF" />
            <path d="M25.8633 87.4697L26.7518 86.796" stroke="white" stroke-linecap="round"
                stroke-linejoin="round" />
            <path
                d="M59.5033 103.937C59.5033 103.937 58.6825 106.92 62.5238 106.23C66.365 105.539 65.4432 103.029 64.9672 102.755C64.4912 102.48 60.6309 102.548 59.5033 103.937Z"
                fill="#FFDA00" />
            <path
                d="M59.1982 103.229C59.1111 102.76 59.39 102.295 61.5989 101.865C63.8077 101.434 64.4508 101.879 64.5079 102.282C64.5652 102.684 65.5625 104.703 62.162 105.309C58.9737 105.876 59.2434 103.473 59.1982 103.229Z"
                fill="#FFDA00" />
            <path
                d="M59.1982 103.229C59.1111 102.76 59.39 102.295 61.5989 101.865C63.8077 101.434 64.4508 101.879 64.5079 102.282C64.5652 102.684 65.5625 104.703 62.162 105.309C58.9737 105.876 59.2434 103.473 59.1982 103.229Z"
                stroke="#FFB600" stroke-linecap="round" stroke-linejoin="round" />
            <path
                d="M59.1983 103.229C59.1113 102.76 59.4208 101.759 61.6295 101.329C63.8382 100.898 64.4507 101.879 64.5078 102.282C64.5652 102.684 64.5424 103.797 62.0911 104.202C59.6398 104.607 59.2436 103.473 59.1983 103.229Z"
                fill="#FFFF00" />
            <path
                d="M59.1983 103.229C59.1113 102.76 59.4208 101.759 61.6295 101.329C63.8382 100.898 64.4507 101.879 64.5078 102.282C64.5652 102.684 64.5424 103.797 62.0911 104.202C59.6398 104.607 59.2436 103.473 59.1983 103.229Z"
                stroke="#FFB600" stroke-linecap="round" stroke-linejoin="round" />
            <path d="M61.0074 102.223C61.0074 102.223 60.3606 102.489 60.3057 102.755"
                stroke="white" stroke-linecap="round" stroke-linejoin="round" />
            <path
                d="M67.4188 92.8991C67.4188 92.8991 65.9976 95.7693 71.3316 95.0728C76.6658 94.3763 73.7346 91.1388 73.5066 91.0379C73.2789 90.9371 68.1923 91.6342 67.4188 92.8991Z"
                fill="#FFDA00" />
            <path
                d="M66.9378 91.1829C66.9063 90.5763 67.3359 90.0366 70.1943 89.8623C73.0529 89.6879 73.7894 90.3569 73.7945 90.8744C73.7995 91.392 74.7207 94.1054 70.3293 94.3014C66.2124 94.4851 66.9542 91.4981 66.9378 91.1829Z"
                fill="#FFFF00" />
            <path
                d="M66.9378 91.1829C66.9063 90.5763 67.3359 90.0366 70.1943 89.8623C73.0529 89.6879 73.7894 90.3569 73.7945 90.8744C73.7995 91.392 74.7207 94.1054 70.3293 94.3014C66.2124 94.4851 66.9542 91.4981 66.9378 91.1829Z"
                stroke="#FFB600" stroke-linecap="round" stroke-linejoin="round" />
            <path
                d="M66.9378 91.1832C66.9063 90.5766 67.4636 89.3665 70.322 89.1924C73.1804 89.018 73.7894 90.3572 73.7945 90.8748C73.7995 91.3923 73.5849 92.7925 70.4246 92.8943C67.2643 92.9962 66.9542 91.4984 66.9378 91.1832Z"
                fill="#FFFF00" />
            <path
                d="M66.9378 91.1832C66.9063 90.5766 67.4636 89.3665 70.322 89.1924C73.1804 89.018 73.7894 90.3572 73.7945 90.8748C73.7995 91.3923 73.5849 92.7925 70.4246 92.8943C67.2643 92.9962 66.9542 91.4984 66.9378 91.1832Z"
                stroke="#FFB600" stroke-linecap="round" stroke-linejoin="round" />
            <path d="M68.5049 90.6243L70.8952 91.9108L71.5923 90.0536L68.5049 90.6243Z"
                fill="#FFFF00" />
            <path d="M68.5049 90.6243L70.8952 91.9108L71.5923 90.0536L68.5049 90.6243Z"
                stroke="#E89F00" stroke-linecap="round" stroke-linejoin="round" />
            <path d="M70.1836 90.3135L70.8569 91.8168L70.1836 90.3135Z" fill="#FFFF00" />
            <path d="M70.1836 90.3135L70.8569 91.8168" stroke="#E89F00" stroke-linecap="round"
                stroke-linejoin="round" />
            <path
                d="M70.3625 96.8404C70.3625 96.8404 70.7365 97.1361 71.0892 97.2908C71.442 97.4452 70.6033 98.8892 68.0304 98.7597C65.4572 98.6304 64.7417 97.9171 65.0143 96.6216C65.2868 95.3262 70.3625 96.8404 70.3625 96.8404Z"
                fill="#FFDA00" />
            <path
                d="M65.1171 95.9167C65.0847 95.4403 65.4157 95.0107 67.6607 94.8378C69.9056 94.665 70.4933 95.1817 70.5036 95.5884C70.5141 95.9953 71.4547 97.7787 68.0051 97.9878C64.7711 98.1838 65.134 96.1643 65.1171 95.9167Z"
                fill="#FFDA00" />
            <path
                d="M65.1171 95.9167C65.0847 95.4403 65.4157 95.0107 67.6607 94.8378C69.9056 94.665 70.4933 95.1817 70.5036 95.5884C70.5141 95.9953 71.4547 97.7787 68.0051 97.9878C64.7711 98.1838 65.134 96.1643 65.1171 95.9167Z"
                stroke="#FFB600" stroke-linecap="round" stroke-linejoin="round" />
            <path
                d="M65.1169 95.9168C65.0845 95.4404 65.5076 94.4818 67.7526 94.309C69.9977 94.1362 70.4931 95.1816 70.5034 95.5883C70.5139 95.9952 70.3627 97.0985 67.8797 97.2182C65.3967 97.3378 65.1337 96.1645 65.1169 95.9168Z"
                fill="#FFFF00" />
            <path
                d="M65.1169 95.9168C65.0845 95.4404 65.5076 94.4818 67.7526 94.309C69.9977 94.1362 70.4931 95.1816 70.5034 95.5883C70.5139 95.9952 70.3627 97.0985 67.8797 97.2182C65.3967 97.3378 65.1337 96.1645 65.1169 95.9168Z"
                stroke="#FFB600" stroke-linecap="round" stroke-linejoin="round" />
            <path d="M66.3418 95.457L68.2373 96.4383L68.762 94.9696L66.3418 95.457Z" fill="#FFFF00" />
            <path d="M66.3418 95.457L68.2373 96.4383L68.762 94.9696L66.3418 95.457Z"
                stroke="#E89F00" stroke-linecap="round" stroke-linejoin="round" />
            <path d="M65.6338 95.7889C65.6338 95.7889 65.8904 96.3796 66.5595 96.5134"
                stroke="white" stroke-linecap="round" stroke-linejoin="round" />
            <path d="M67.7168 95.3583L68.237 96.4385L67.7168 95.3583Z" fill="#FFFF00" />
            <path d="M67.7168 95.3583L68.237 96.4385" stroke="#E89F00" stroke-linecap="round"
                stroke-linejoin="round" />
            <path
                d="M49.0738 93.7404C49.0738 93.7404 49.5922 94.0551 50.0617 94.1949C50.5313 94.3345 49.699 96.2886 46.4309 96.5285C43.1629 96.7685 42.1479 95.9806 42.289 94.3028C42.4301 92.6249 49.0738 93.7404 49.0738 93.7404Z"
                fill="#FFDA00" />
            <path
                d="M42.3078 93.3966C42.1923 92.8003 42.5427 92.2064 45.3493 91.6363C48.1556 91.0662 48.9785 91.6262 49.0555 92.1379C49.1323 92.6498 50.599 94.7535 46.2776 95.5581C42.2262 96.3125 42.3679 93.7066 42.3078 93.3966Z"
                fill="#FFDA00" />
            <path
                d="M42.3078 93.3966C42.1923 92.8003 42.5427 92.2064 45.3493 91.6363C48.1556 91.0662 48.9785 91.6262 49.0555 92.1379C49.1323 92.6498 50.599 94.7535 46.2776 95.5581C42.2262 96.3125 42.3679 93.7066 42.3078 93.3966Z"
                stroke="#FFB600" stroke-linecap="round" stroke-linejoin="round" />
            <path
                d="M42.3078 93.3963C42.1923 92.8 42.5762 91.5242 45.3828 90.9541C48.1891 90.3843 48.9784 91.6259 49.0554 92.1376C49.1321 92.6495 49.1142 94.0656 45.999 94.6057C42.8835 95.146 42.368 93.7062 42.3078 93.3963Z"
                fill="#FFFF00" />
            <path
                d="M42.3078 93.3963C42.1923 92.8 42.5762 91.5242 45.3828 90.9541C48.1891 90.3843 48.9784 91.6259 49.0554 92.1376C49.1321 92.6495 49.1142 94.0656 45.999 94.6057C42.8835 95.146 42.368 93.7062 42.3078 93.3963Z"
                stroke="#FFB600" stroke-linecap="round" stroke-linejoin="round" />
            <path d="M43.7822 92.6244L46.3285 93.5659L46.7603 91.6299L43.7822 92.6244Z"
                fill="#FFFF00" />
            <path d="M43.7822 92.6244L46.3285 93.5659L46.7603 91.6299L43.7822 92.6244Z"
                stroke="#E89F00" stroke-linecap="round" stroke-linejoin="round" />
            <path d="M42.9404 93.1543C42.9404 93.1543 43.3571 93.8593 44.2227 93.9234"
                stroke="white" stroke-linecap="round" stroke-linejoin="round" />
            <path d="M45.5029 92.2842L46.3285 93.5661L45.5029 92.2842Z" fill="#FFFF00" />
            <path d="M45.5029 92.2842L46.3285 93.5661" stroke="#E89F00" stroke-linecap="round"
                stroke-linejoin="round" />
            <path
                d="M36.0426 90.5167C36.0426 90.5167 33.9597 92.8042 37.697 93.9286C41.4344 95.0532 41.7494 92.3984 41.4492 91.9379C41.1493 91.4775 37.6771 89.7892 36.0426 90.5167Z"
                fill="#FFDA00" />
            <path
                d="M36.0919 89.7467C36.2269 89.2888 36.686 89.001 38.8501 89.6178C41.0142 90.2345 41.3861 90.9227 41.2546 91.3075C41.1234 91.6925 41.0978 93.9443 37.7918 92.9435C34.6924 92.0053 36.0217 89.9847 36.0919 89.7467Z"
                fill="#FFDA00" />
            <path
                d="M36.0919 89.7467C36.2269 89.2888 36.686 89.001 38.8501 89.6178C41.0142 90.2345 41.3861 90.9227 41.2546 91.3075C41.1234 91.6925 41.0978 93.9443 37.7918 92.9435C34.6924 92.0053 36.0217 89.9847 36.0919 89.7467Z"
                stroke="#FFB600" stroke-linecap="round" stroke-linejoin="round" />
            <path
                d="M36.0916 89.7465C36.2266 89.2886 36.9557 88.5372 39.1197 89.1541C41.2838 89.7708 41.386 90.9225 41.2545 91.3073C41.1233 91.6923 40.5987 92.6738 38.2297 91.9246C35.8608 91.1753 36.0214 89.9845 36.0916 89.7465Z"
                fill="#FFFF00" />
            <path
                d="M36.0916 89.7465C36.2266 89.2886 36.9557 88.5372 39.1197 89.1541C41.2838 89.7708 41.386 90.9225 41.2545 91.3073C41.1233 91.6923 40.5987 92.6738 38.2297 91.9246C35.8608 91.1753 36.0214 89.9845 36.0916 89.7465Z"
                stroke="#FFB600" stroke-linecap="round" stroke-linejoin="round" />
            <path d="M38.1606 89.6695C38.1606 89.6695 37.4633 89.6139 37.2939 89.8263"
                stroke="white" stroke-linecap="round" stroke-linejoin="round" />
            <path
                d="M75.6677 98.2001C75.6677 98.2001 73.7209 101.261 77.8828 101.915C82.045 102.569 83.0702 101.88 82.7091 99.4781C82.3479 97.0762 75.6677 98.2001 75.6677 98.2001Z"
                fill="#FFDA00" />
            <path
                d="M75.962 97.5881C76.0797 96.9922 76.6281 96.574 79.4425 97.104C82.2567 97.6338 82.8077 98.4626 82.6859 98.9658C82.5643 99.4687 82.8165 102.157 78.5104 101.274C74.4736 100.445 75.9007 97.8978 75.962 97.5881Z"
                fill="#FFDA00" />
            <path
                d="M75.962 97.5881C76.0797 96.9922 76.6281 96.574 79.4425 97.104C82.2567 97.6338 82.8077 98.4626 82.6859 98.9658C82.5643 99.4687 82.8165 102.157 78.5104 101.274C74.4736 100.445 75.9007 97.8978 75.962 97.5881Z"
                stroke="#FFB600" stroke-linecap="round" stroke-linejoin="round" />
            <path
                d="M75.9616 97.5881C76.0793 96.9922 76.9158 95.9551 79.7302 96.4851C82.5445 97.0152 82.8076 98.4626 82.6858 98.9658C82.5641 99.4687 82.0138 100.774 78.9246 100.1C75.8354 99.4258 75.9004 97.8978 75.9616 97.5881Z"
                fill="#FFFF00" />
            <path
                d="M75.9616 97.5881C76.0793 96.9922 76.9158 95.9551 79.7302 96.4851C82.5445 97.0152 82.8076 98.4626 82.6858 98.9658C82.5641 99.4687 82.0138 100.774 78.9246 100.1C75.8354 99.4258 75.9004 97.8978 75.9616 97.5881Z"
                stroke="#FFB600" stroke-linecap="round" stroke-linejoin="round" />
            <path d="M77.6182 97.4288L79.6217 99.2606L80.7515 97.6302L77.6182 97.4288Z"
                fill="#FFFF00" />
            <path d="M77.6182 97.4288L79.6217 99.2606L80.7515 97.6302L77.6182 97.4288Z"
                stroke="#E89F00" stroke-linecap="round" stroke-linejoin="round" />
            <path d="M76.6387 97.6026C76.6387 97.6026 76.759 98.4129 77.5364 98.7987" stroke="white"
                stroke-linecap="round" stroke-linejoin="round" />
            <path d="M79.4023 97.6026L79.622 99.2616L79.4023 97.6026Z" fill="#FFFF00" />
            <path d="M79.4023 97.6026L79.622 99.2616" stroke="#E89F00" stroke-linecap="round"
                stroke-linejoin="round" />
            <path
                d="M90.7975 89.017C90.7975 89.017 89.5861 92.5216 93.9598 92.2023C98.3334 91.8827 99.2001 90.9567 98.2394 88.6476C97.2786 86.3385 90.7975 89.017 90.7975 89.017Z"
                fill="#FFDA00" />
            <path
                d="M90.9428 88.3385C90.9144 87.7172 91.3656 87.1723 94.3448 87.0439C97.3239 86.9153 98.0867 87.6127 98.0883 88.1425C98.0898 88.6721 99.0116 91.2927 94.4354 91.4167C90.1452 91.5331 90.9577 88.6613 90.9428 88.3385Z"
                fill="#FFDA00" />
            <path
                d="M90.9428 88.3385C90.9144 87.7172 91.3656 87.1723 94.3448 87.0439C97.3239 86.9153 98.0867 87.6127 98.0883 88.1425C98.0898 88.6721 99.0116 91.2927 94.4354 91.4167C90.1452 91.5331 90.9577 88.6613 90.9428 88.3385Z"
                stroke="#FFB600" stroke-linecap="round" stroke-linejoin="round" />
            <path
                d="M90.9433 88.3386C90.9149 87.7174 91.5042 86.4884 94.4834 86.36C97.4623 86.2314 98.0873 87.6128 98.0888 88.1426C98.0903 88.6722 97.8569 90.1009 94.5641 90.1501C91.271 90.1993 90.9582 88.6615 90.9433 88.3386Z"
                fill="#FFFF00" />
            <path
                d="M90.9433 88.3386C90.9149 87.7174 91.5042 86.4884 94.4834 86.36C97.4623 86.2314 98.0873 87.6128 98.0888 88.1426C98.0903 88.6722 97.8569 90.1009 94.5641 90.1501C91.271 90.1993 90.9582 88.6615 90.9433 88.3386Z"
                stroke="#FFB600" stroke-linecap="round" stroke-linejoin="round" />
            <path d="M92.5801 87.7939L95.0611 89.1522L95.8005 87.2639L92.5801 87.7939Z"
                fill="#FFFF00" />
            <path d="M92.5801 87.7939L95.0611 89.1522L95.8005 87.2639L92.5801 87.7939Z"
                stroke="#E89F00" stroke-linecap="round" stroke-linejoin="round" />
            <path d="M91.6318 88.1954C91.6318 88.1954 91.9543 88.9746 92.8367 89.1776"
                stroke="white" stroke-linecap="round" stroke-linejoin="round" />
            <path d="M94.4277 87.5499L95.0608 89.1516L94.4277 87.5499Z" fill="#FFFF00" />
            <path d="M94.4277 87.5499L95.0608 89.1516" stroke="#E89F00" stroke-linecap="round"
                stroke-linejoin="round" />
            <path
                d="M13.7434 101.174C13.7434 101.174 13.7086 103.636 18.4485 102.839C23.1884 102.041 20.8939 98.2839 19.7181 98.1824C18.5426 98.0809 13.4404 99.6813 13.7434 101.174Z"
                fill="#FFDA00" />
            <path
                d="M12.7938 99.2083C12.6538 98.5713 13.014 97.924 16.0114 97.2365C19.0087 96.549 19.9069 97.128 20.0031 97.6753C20.0994 98.2226 21.5523 100.935 16.9351 101.915C12.6065 102.834 12.8666 99.5395 12.7938 99.2083Z"
                fill="#FFDA00" />
            <path
                d="M12.7938 99.2083C12.6538 98.5713 13.014 97.924 16.0114 97.2365C19.0087 96.549 19.9069 97.128 20.0031 97.6753C20.0994 98.2226 21.5523 100.935 16.9351 101.915C12.6065 102.834 12.8666 99.5395 12.7938 99.2083Z"
                stroke="#FFB600" stroke-linecap="round" stroke-linejoin="round" />
            <path
                d="M12.7941 99.2087C12.6541 98.5717 13.0317 97.1919 16.029 96.5043C19.0263 95.8168 19.907 97.1287 20.0033 97.676C20.0995 98.2233 20.1183 99.7438 16.7887 100.407C13.4591 101.071 12.867 99.5399 12.7941 99.2087Z"
                fill="#FFFF00" />
            <path
                d="M12.7941 99.2087C12.6541 98.5717 13.0317 97.1919 16.029 96.5043C19.0263 95.8168 19.907 97.1287 20.0033 97.676C20.0995 98.2233 20.1183 99.7438 16.7887 100.407C13.4591 101.071 12.867 99.5399 12.7941 99.2087Z"
                stroke="#FFB600" stroke-linecap="round" stroke-linejoin="round" />
            <path d="M14.3555 98.3412L17.1143 99.2834L17.526 97.1934L14.3555 98.3412Z"
                fill="#FFFF00" />
            <path d="M14.3555 98.3412L17.1143 99.2834L17.526 97.1934L14.3555 98.3412Z"
                stroke="#E89F00" stroke-linecap="round" stroke-linejoin="round" />
            <path d="M16.0801 97.7169L17.0575 99.1904L16.0801 97.7169Z" fill="#FFFF00" />
            <path d="M16.0801 97.7169L17.0575 99.1904" stroke="#E89F00" stroke-linecap="round"
                stroke-linejoin="round" />
            <path d="M13.4668 98.9317C13.4668 98.9317 13.933 99.6772 14.8637 99.7227" stroke="white"
                stroke-linecap="round" stroke-linejoin="round" />
            <path
                d="M52.5521 94.873C52.5521 94.873 50.7417 97.375 54.5002 97.9525C58.2588 98.5303 58.2474 96.4972 58.2474 96.4972C58.2474 96.4972 57.9327 94.0262 52.5521 94.873Z"
                fill="#FFDA00" />
            <path
                d="M52.5629 94.1466C52.6474 93.682 53.0687 93.3506 55.2628 93.729C57.4568 94.1075 57.895 94.7451 57.8064 95.1378C57.7176 95.5302 57.9304 97.7477 54.5726 97.112C51.4246 96.5161 52.519 94.3881 52.5629 94.1466Z"
                fill="#FFDA00" />
            <path
                d="M52.5629 94.1466C52.6474 93.682 53.0687 93.3506 55.2628 93.729C57.4568 94.1075 57.895 94.7451 57.8064 95.1378C57.7176 95.5302 57.9304 97.7477 54.5726 97.112C51.4246 96.5161 52.519 94.3881 52.5629 94.1466Z"
                stroke="#FFB600" stroke-linecap="round" stroke-linejoin="round" />
            <path
                d="M52.563 94.1471C52.6474 93.6825 53.2853 92.8663 55.4794 93.2448C57.6734 93.6234 57.8952 94.7454 57.8066 95.1381C57.7178 95.5305 57.3057 96.5514 54.8962 96.0643C52.4866 95.5771 52.519 94.3886 52.563 94.1471Z"
                fill="#FFFF00" />
            <path
                d="M52.563 94.1471C52.6474 93.6825 53.2853 92.8663 55.4794 93.2448C57.6734 93.6234 57.8952 94.7454 57.8066 95.1381C57.7178 95.5305 57.3057 96.5514 54.8962 96.0643C52.4866 95.5771 52.519 94.3886 52.563 94.1471Z"
                stroke="#FFB600" stroke-linecap="round" stroke-linejoin="round" />
            <path d="M53.8486 94.004L55.4278 95.4044L56.2868 94.1236L53.8486 94.004Z" fill="#FFFF00" />
            <path d="M53.8486 94.004L55.4278 95.4044L56.2868 94.1236L53.8486 94.004Z"
                stroke="#E89F00" stroke-linecap="round" stroke-linejoin="round" />
            <path d="M55.1748 94.0694L55.4159 95.3268L55.1748 94.0694Z" fill="#FFFF00" />
            <path d="M55.1748 94.0694L55.4159 95.3268" stroke="#E89F00" stroke-linecap="round"
                stroke-linejoin="round" />
            <path d="M53.0898 94.1505C53.0898 94.1505 53.1929 94.7789 53.8021 95.0696"
                stroke="white" stroke-linecap="round" stroke-linejoin="round" />
            <path
                d="M58.9403 93.5212C58.9403 93.5212 55.8058 96.713 60.8426 97.8358C65.8791 98.9589 65.6004 95.0529 65.6004 95.0529C65.6004 95.0529 60.4236 92.9363 58.9403 93.5212Z"
                fill="#FFDA00" />
            <path
                d="M58.9701 93.0564C59.1202 92.4679 59.6907 92.0801 62.4721 92.7626C65.2533 93.4453 65.7581 94.3028 65.6092 94.7985C65.4602 95.2942 65.5339 98.1587 61.2825 97.0416C57.2969 95.9942 58.892 93.3624 58.9701 93.0564Z"
                fill="#FFFF00" />
            <path
                d="M58.9701 93.0564C59.1202 92.4679 59.6907 92.0801 62.4721 92.7626C65.2533 93.4453 65.7581 94.3028 65.6092 94.7985C65.4602 95.2942 65.5339 98.1587 61.2825 97.0416C57.2969 95.9942 58.892 93.3624 58.9701 93.0564Z"
                stroke="#FFB600" stroke-linecap="round" stroke-linejoin="round" />
            <path
                d="M58.9704 93.0567C59.1204 92.4683 60.0123 91.4782 62.7935 92.1609C65.5746 92.8434 65.7584 94.3031 65.6094 94.7988C65.4605 95.2945 64.8399 96.5676 61.792 95.7261C58.7442 94.8848 58.8923 93.3627 58.9704 93.0567Z"
                fill="#FFFF00" />
            <path
                d="M58.9704 93.0567C59.1204 92.4683 60.0123 91.4782 62.7935 92.1609C65.5746 92.8434 65.7584 94.3031 65.6094 94.7988C65.4605 95.2945 64.8399 96.5676 61.792 95.7261C58.7442 94.8848 58.8923 93.3627 58.9704 93.0567Z"
                stroke="#FFB600" stroke-linecap="round" stroke-linejoin="round" />
            <path d="M60.6328 92.9883L62.5331 94.9265L63.7504 93.3604L60.6328 92.9883Z"
                fill="#FFFF00" />
            <path d="M60.6328 92.9883L62.5331 94.9265L63.7504 93.3604L60.6328 92.9883Z"
                stroke="#E89F00" stroke-linecap="round" stroke-linejoin="round" />
            <path d="M62.3281 93.1905L62.5246 94.8259L62.3281 93.1905Z" fill="#FFFF00" />
            <path d="M62.3281 93.1905L62.5246 94.8259" stroke="#E89F00" stroke-linecap="round"
                stroke-linejoin="round" />
            <path d="M59.2041 95.1104C59.2041 95.1104 59.5093 95.8704 60.3552 96.0646"
                stroke="white" stroke-linecap="round" stroke-linejoin="round" />
            <path
                d="M37.7382 93.7282C38.0512 93.2078 38.709 93.0006 41.1763 94.4544C43.6435 95.9085 43.8802 96.8751 43.595 97.3069C43.3097 97.7387 42.5561 100.503 38.8059 98.2102C35.2901 96.0603 37.5754 93.9988 37.7382 93.7282Z"
                fill="#FFFF00" />
            <path
                d="M37.7382 93.7282C38.0512 93.2078 38.709 93.0006 41.1763 94.4544C43.6435 95.9085 43.8802 96.8751 43.595 97.3069C43.3097 97.7387 42.5561 100.503 38.8059 98.2102C35.2901 96.0603 37.5754 93.9988 37.7382 93.7282Z"
                stroke="#FFB600" stroke-linecap="round" stroke-linejoin="round" />
            <path
                d="M37.738 93.7281C38.051 93.2077 39.19 92.5161 41.6571 93.9701C44.1244 95.4241 43.8803 96.8751 43.595 97.3069C43.3098 97.7387 42.349 98.7793 39.6722 97.0967C36.9953 95.4138 37.5752 93.9987 37.738 93.7281Z"
                fill="#FFFF00" />
            <path
                d="M37.738 93.7281C38.051 93.2077 39.19 92.5161 41.6571 93.9701C44.1244 95.4241 43.8803 96.8751 43.595 97.3069C43.3098 97.7387 42.349 98.7793 39.6722 97.0967C36.9953 95.4138 37.5752 93.9987 37.738 93.7281Z"
                stroke="#FFB600" stroke-linecap="round" stroke-linejoin="round" />
            <path d="M39.3506 94.1415L40.613 96.5447L42.2298 95.3947L39.3506 94.1415Z"
                fill="#FFFF00" />
            <path d="M39.3506 94.1415L40.613 96.5447L42.2298 95.3947L39.3506 94.1415Z"
                stroke="#E89F00" stroke-linecap="round" stroke-linejoin="round" />
            <path d="M40.9154 94.8221L40.6328 96.4448L40.9154 94.8221Z" fill="#FFFF00" />
            <path d="M40.9154 94.8221L40.6328 96.4448" stroke="#E89F00" stroke-linecap="round"
                stroke-linejoin="round" />
            <path d="M37.3711 95.7626C37.3711 95.7626 37.445 96.5781 38.1993 97.0077" stroke="white"
                stroke-linecap="round" stroke-linejoin="round" />
            <path
                d="M48.0508 101.352L49.6859 95.1259L52.0075 95.5612L53.8901 97.7694L54.1443 100.181L48.0508 101.352Z"
                fill="#859AFF" />
            <path
                d="M48.0508 101.352L49.6859 95.1259L52.0075 95.5612L53.8901 97.7694L54.1443 100.181L48.0508 101.352Z"
                stroke="#4169F8" stroke-linecap="round" stroke-linejoin="round" />
            <path d="M50.8652 97.4364L52.2652 99.1599L54.1443 100.182" fill="#859AFF" />
            <path d="M50.8652 97.4364L52.2652 99.1599L54.1443 100.182" stroke="#4169F8"
                stroke-linecap="round" stroke-linejoin="round" />
            <path d="M49.6855 95.1259L50.0985 96.164L49.6855 95.1259Z" fill="#859AFF" />
            <path d="M49.6855 95.1259L50.0985 96.164" stroke="#4169F8" stroke-linecap="round"
                stroke-linejoin="round" />
            <path d="M50.6504 99.9365L52.2648 99.1591L50.6504 99.9365Z" fill="#859AFF" />
            <path d="M50.6504 99.9365L52.2648 99.1591" stroke="#4169F8" stroke-linecap="round"
                stroke-linejoin="round" />
            <path d="M51.6641 96.2675L52.3304 97.1613L51.6641 96.2675Z" fill="#859AFF" />
            <path d="M51.6641 96.2675L52.3304 97.1613" stroke="white" stroke-linecap="round"
                stroke-linejoin="round" />
        </g>
    </g>
</svg>